<?xml version="1.0" encoding="UTF-8"?>
<svg version="1.1" xmlns="http://www.w3.org/2000/svg" width="781" height="781">
<path d="M0 0 C13.51673657 15.48280734 22.75510244 33.99573168 22.25390625 54.87890625 C21.67529345 59.71254855 18.6045218 62.96920831 15 66 C9.59927017 67.02297947 4.5182208 66.61261541 -0.5625 64.5625 C-3.93155061 61.02067756 -4.85031639 57.68234778 -6 53 C-6.24363281 52.030625 -6.48726563 51.06125 -6.73828125 50.0625 C-7.24487631 48.02572807 -7.74750163 45.98796453 -8.24609375 43.94921875 C-9.77710499 37.85838562 -9.77710499 37.85838562 -12 32 C-12.66 31.67 -13.32 31.34 -14 31 C-14.86675844 29.68814939 -15.69380166 28.3499135 -16.5 27 C-20.19956758 21.3139651 -25.65225643 14.41485892 -32.3046875 12.25 C-32.86414063 12.1675 -33.42359375 12.085 -34 12 C-34 11.34 -34 10.68 -34 10 C-35.32 10.33 -36.64 10.66 -38 11 C-38.20625 10.37609375 -38.4125 9.7521875 -38.625 9.109375 C-39.86740446 6.76087721 -39.86740446 6.76087721 -42.625 5.953125 C-61.29282194 2.06399543 -79.56579911 2.51934172 -96.1953125 12.9296875 C-101.50592598 16.84977823 -107.86131585 21.58394756 -110 28 C-110.92232422 28.86818359 -110.92232422 28.86818359 -111.86328125 29.75390625 C-114.54437281 32.57223833 -115.69914698 35.352444 -117.1875 38.9375 C-117.69667969 40.14277344 -118.20585937 41.34804687 -118.73046875 42.58984375 C-123.87035725 56.39637501 -121.59451734 71.81865831 -115.6796875 84.92578125 C-107.68960911 100.7094607 -95.4068143 108.43969539 -79 114 C-77.94039063 114.32484375 -76.88078125 114.6496875 -75.7890625 114.984375 C-63.20426116 118.85174468 -57.58303325 124.81601205 -51.25 136.125 C-49.94024306 139.23751228 -49.79418327 142.29171166 -49.546875 145.63647461 C-49.25146913 151.64767549 -49.25146913 151.64767549 -46.3671875 156.6484375 C-43.94486079 157.69423907 -41.55680645 158.34819441 -39 159 C-25.63605615 163.84487991 -13.96859681 171.4586777 -2 179 C-1.14116211 179.54027832 -0.28232422 180.08055664 0.60253906 180.63720703 C3.79104329 182.64532119 6.97716948 184.65707208 10.15820312 186.67700195 C15.30297534 189.94232863 20.48067169 193.14717695 25.6875 196.3125 C39.3082648 204.59707641 52.81459233 213.06924325 66.27514648 221.61132812 C74.89602998 227.08069855 83.58635591 232.42547262 92.31494141 237.72119141 C106.28246738 246.1975694 120.14797226 254.83652486 134 263.5 C136.99896337 265.37395683 139.9980094 267.24778131 142.99707031 269.12158203 C145.02348051 270.38915927 147.04884808 271.65840464 149.07324219 272.92919922 C152.00471304 274.76924501 154.93952794 276.6038464 157.875 278.4375 C158.76703125 278.99953125 159.6590625 279.5615625 160.578125 280.140625 C161.39539063 280.64980469 162.21265625 281.15898437 163.0546875 281.68359375 C163.77124512 282.13275146 164.48780273 282.58190918 165.22607422 283.04467773 C166.95767987 284.15805013 166.95767987 284.15805013 169 284 C170.34044999 285.32617849 171.67266583 286.66069438 173 288 C174.51597627 289.03770396 176.06871504 290.02312595 177.6484375 290.9609375 C178.56061035 291.5079834 179.4727832 292.0550293 180.41259766 292.61865234 C181.39019043 293.19824707 182.3677832 293.7778418 183.375 294.375 C191.52888767 299.26940376 199.61598606 304.24677578 207.625 309.375 C209.43481056 310.53138347 211.24470349 311.68763803 213.0546875 312.84375 C213.89612305 313.38128906 214.73755859 313.91882813 215.60449219 314.47265625 C218.97656207 316.62264291 222.35560196 318.76044099 225.75 320.875 C226.73484375 321.49117188 227.7196875 322.10734375 228.734375 322.7421875 C230.85953974 324.16179564 230.85953974 324.16179564 233 324 C233.59683594 324.598125 234.19367187 325.19625 234.80859375 325.8125 C237.10640252 328.10621286 239.22722822 329.43346135 242.0625 331 C248.40328211 334.60675426 254.55996921 338.46413237 260.71362305 342.38037109 C264.56551596 344.83084766 268.42127501 347.26959741 272.3203125 349.64453125 C294.45465977 363.1488518 313.02974685 378.66391747 320.8125 404.4375 C324.60954729 421.24052536 322.57883383 439.49375271 313.75390625 454.37890625 C305.52189726 466.6810845 295.51790911 475.80429166 282 482 C281.34 482 280.68 482 280 482 C280 482.66 280 483.32 280 484 C262.97390989 487.4567008 246.39581056 488.29698049 229.08374023 488.2746582 C226.82823011 488.27901504 224.57272146 488.28420139 222.31721497 488.29014587 C216.24348111 488.30343323 210.16980986 488.30412677 204.09606433 488.30158257 C199.01346406 488.30050724 193.93087618 488.30540983 188.84827858 488.310188 C176.17933852 488.32187463 163.5104435 488.32107821 150.84150393 488.31463119 C139.85485898 488.30944966 128.86830235 488.32075837 117.88167488 488.33972941 C106.56740296 488.35911511 95.25318504 488.36707208 83.93889195 488.36360615 C77.5996609 488.36179454 71.26051104 488.3644188 64.92129326 488.37832069 C58.96953734 488.39088814 53.01795915 488.38896511 47.06620598 488.37590981 C44.88453613 488.37354327 42.7028538 488.37628145 40.52119827 488.38453293 C37.54036942 488.39499387 34.56013795 488.38690511 31.57933044 488.3742218 C30.7193111 488.38159609 29.85929176 488.38897037 28.97321123 488.39656812 C23.34328739 488.34626933 19.13872312 487.34748881 14 485 C11.88104399 482.29213933 11.72947979 480.11653157 12.0625 476.75 C12.91808378 470.83869391 15.27240854 466.26176823 19.8984375 462.42578125 C26.16549573 458.23573657 32.0008453 457.87377137 39.46653748 457.88647461 C40.19804317 457.88632575 40.92954887 457.88617689 41.6832214 457.88602352 C44.12535115 457.88671576 46.56740486 457.89454923 49.00952148 457.90234375 C50.76663674 457.90426437 52.52375254 457.90572749 54.28086853 457.9067688 C58.0686742 457.90993029 61.85645757 457.91620183 65.64425468 457.92483521 C71.68552857 457.93844506 77.72679518 457.94427355 83.76808167 457.94897461 C97.73760775 457.96100864 111.70711545 457.982763 125.67662811 458.00520325 C138.37832792 458.02558662 151.08002009 458.04365826 163.7817331 458.05341816 C168.77704587 458.05749712 173.77233577 458.06359731 178.76763725 458.07516479 C191.84556944 458.1048584 204.92229309 458.08396426 218 458 C219.54832071 457.99124973 219.54832071 457.99124973 221.12792063 457.98232269 C227.58893629 457.94370169 234.04903574 457.88052403 240.50949872 457.78719902 C242.56130814 457.76016389 244.61321299 457.73949167 246.66515434 457.72572517 C260.72649072 457.62274173 273.21478607 457.19424331 284 447 C290.67250201 439.89931604 293.88373481 429.63063285 294 420 C293.62814292 416.50454345 293.49374292 415.49374292 291 413 C289.933145 409.99340864 289.95059686 409.14820941 291 406 C289.19838629 401.79623468 287.24932269 399.21028135 284 396.0625 C282 394 282 394 280 391 C279.071875 390.38125 278.14375 389.7625 277.1875 389.125 C274 387 274 387 271.5625 384.5 C268.56845638 381.57898184 265.6845399 379.95063877 262 378 C262 377.34 262 376.68 262 376 C261.28070312 375.72027344 260.56140625 375.44054687 259.8203125 375.15234375 C257.11505529 374.04701013 254.49798176 372.84992682 251.875 371.5625 C250.60269531 370.94568359 250.60269531 370.94568359 249.3046875 370.31640625 C247.10526968 369.06012861 245.74391817 367.80140998 244 366 C242.81502717 365.27297518 241.60563283 364.58423683 240.375 363.9375 C237 362 237 362 236 360 C234.34267619 359.31043491 232.67378365 358.64859117 231 358 C228.98192815 356.88630343 226.98250303 355.73834682 225 354.5625 C223.989375 353.96566406 222.97875 353.36882812 221.9375 352.75390625 C220.03899089 351.62035493 218.14297188 350.48261797 216.25 349.33984375 C214.07017071 348.00451026 214.07017071 348.00451026 212 347 C212 346.34 212 345.68 212 345 C211.28448975 344.73429199 210.56897949 344.46858398 209.83178711 344.19482422 C206.92847283 342.96982033 204.37762509 341.52761311 201.69140625 339.8828125 C200.69689453 339.27566406 199.70238281 338.66851562 198.67773438 338.04296875 C197.64970703 337.41003906 196.62167969 336.77710938 195.5625 336.125 C194.02625977 335.18720703 194.02625977 335.18720703 192.45898438 334.23046875 C184.26721954 329.2146697 184.26721954 329.2146697 180.48828125 326.6640625 C177.76407904 324.84222554 174.95627263 323.40774887 172 322 C172 321.34 172 320.68 172 320 C171.29488281 319.73445313 170.58976563 319.46890625 169.86328125 319.1953125 C166.84432214 317.93501033 164.04814924 316.46042006 161.1875 314.875 C159.72376953 314.06675781 159.72376953 314.06675781 158.23046875 313.2421875 C157.12638672 312.62730469 157.12638672 312.62730469 156 312 C156 311.34 156 310.68 156 310 C155.32066406 309.76410156 154.64132812 309.52820313 153.94140625 309.28515625 C149.65830698 307.41378884 145.95135259 304.79350823 142.08398438 302.18945312 C139.07467171 300.20168011 136.53871596 298.71431157 133 298 C131.66666667 296.66666667 130.33333333 295.33333333 129 294 C127.00934459 292.98152514 125.00751815 291.98482022 123 291 C121.61273278 290.10865323 120.23881459 289.19636411 118.875 288.26953125 C114.19525933 285.1196419 109.45760233 282.07338781 104.6875 279.0625 C103.86588379 278.54252441 103.04426758 278.02254883 102.19775391 277.48681641 C96.56395182 273.9382169 90.87272983 270.54409611 85.0546875 267.3046875 C83 266 83 266 82 264 C80.34015202 263.31653318 78.67163195 262.65411685 77 262 C72.18423553 259.40689605 67.69762123 256.49328844 63.2109375 253.3671875 C60.8836714 251.92806535 58.53504492 251.01317013 56 250 C55.4225 249.401875 54.845 248.80375 54.25 248.1875 C52.16699263 246.16235395 50.60047653 245.1530368 48.0703125 243.81640625 C41.37475751 240.16813547 35.04154099 235.96201998 28.64453125 231.8203125 C27.70222656 231.21445312 26.75992187 230.60859375 25.7890625 229.984375 C24.94037598 229.43491211 24.09168945 228.88544922 23.21728516 228.31933594 C20.95502232 226.86648031 20.95502232 226.86648031 18 226 C18 225.34 18 224.68 18 224 C17.278125 223.71125 16.55625 223.4225 15.8125 223.125 C13.20833333 222.08333333 10.60416667 221.04166667 8 220 C8 219.34 8 218.68 8 218 C6.02 217.34 4.04 216.68 2 216 C2 215.34 2 214.68 2 214 C1.26587891 213.72309326 0.53175781 213.44618652 -0.22460938 213.16088867 C-2.79589183 212.08537424 -5.03551403 210.8818135 -7.40625 209.42578125 C-8.22697998 208.9261084 -9.04770996 208.42643555 -9.89331055 207.91162109 C-10.75351807 207.38391113 -11.61372559 206.85620117 -12.5 206.3125 C-19.48005335 202.06454627 -26.48300793 198.02265669 -33.76171875 194.3046875 C-36 193 -36 193 -37 191 C-39.33713787 190.15447766 -39.33713787 190.15447766 -42.125 189.5 C-45.22767249 188.70929122 -48.28108176 187.91004066 -51.33203125 186.93359375 C-63.76662721 183.76866464 -75.45007228 185.89762229 -87 191 C-87.93199219 191.34289062 -88.86398437 191.68578125 -89.82421875 192.0390625 C-92.1636244 192.79599248 -92.1636244 192.79599248 -93 195 C-94.77734375 196 -94.77734375 196 -96.9375 197 C-99.48615488 198.18413003 -100.98757159 198.98757159 -103 201 C-104.56644748 201.88475275 -106.153359 202.73347487 -107.75 203.5625 C-113.17299257 206.45715696 -118.29533787 209.69414761 -123.40332031 213.10375977 C-127.79333232 216 -127.79333232 216 -130 216 C-130 216.66 -130 217.32 -130 218 C-131.12792969 218.54011719 -132.25585938 219.08023438 -133.41796875 219.63671875 C-138.25307924 222.05586904 -142.76720905 224.89312561 -147.3125 227.8125 C-148.14193115 228.34004883 -148.9713623 228.86759766 -149.82592773 229.41113281 C-153.43032167 231.70550944 -157.02584438 234.01302309 -160.609375 236.33984375 C-161.58390625 236.97019531 -162.5584375 237.60054688 -163.5625 238.25 C-164.38878906 238.79140625 -165.21507812 239.3328125 -166.06640625 239.890625 C-168 241 -168 241 -170 241 C-170 241.66 -170 242.32 -170 243 C-171.08925781 243.51691406 -172.17851562 244.03382813 -173.30078125 244.56640625 C-178.82104129 247.32956472 -183.97816739 250.63512133 -189.1875 253.9375 C-191.31741218 255.27911611 -193.44762658 256.62025253 -195.578125 257.9609375 C-196.64740234 258.63479492 -197.71667969 259.30865234 -198.81835938 260.00292969 C-204.50964841 263.57527041 -210.2333886 267.09524818 -215.9597168 270.61108398 C-220.7862888 273.58658231 -225.51215119 276.66493601 -230.17211914 279.89624023 C-232 281 -232 281 -234 281 C-234.33 281.66 -234.66 282.32 -235 283 C-236.32467746 283.6837045 -237.65863633 284.34964186 -239 285 C-239.66 285.66 -240.32 286.32 -241 287 C-243 288 -245 289 -247 290 C-247.66 290.66 -248.32 291.32 -249 292 C-255.18978102 296 -255.18978102 296 -258 296 C-258.33 296.66 -258.66 297.32 -259 298 C-260.59259654 299.01126853 -262.22673079 299.95726562 -263.875 300.875 C-270.45930438 304.62955532 -276.84932022 308.6553132 -283.23583984 312.73583984 C-286.76682458 314.98523511 -290.29431606 317.19497432 -293.94921875 319.23828125 C-296.99304871 320.82055799 -296.99304871 320.82055799 -299 323 C-300.7762938 324.08469069 -302.57416108 325.13423067 -304.3828125 326.1640625 C-310.6342738 329.76802155 -316.76513098 333.53702993 -322.875 337.375 C-324.43275146 338.3496521 -324.43275146 338.3496521 -326.02197266 339.34399414 C-332.92765158 343.67254986 -339.78562628 348.06641736 -346.5859375 352.55859375 C-349 354 -349 354 -351 354 C-351 354.66 -351 355.32 -351 356 C-351.53109375 356.25394531 -352.0621875 356.50789063 -352.609375 356.76953125 C-353.31578125 357.11371094 -354.0221875 357.45789063 -354.75 357.8125 C-355.44609375 358.14894531 -356.1421875 358.48539063 -356.859375 358.83203125 C-359.08631149 360.04709331 -360.9756763 361.47498367 -363 363 C-364.63497704 363.95630732 -366.28243343 364.89139834 -367.9375 365.8125 C-397.54486558 382.54271127 -397.54486558 382.54271127 -415.9375 410 C-418.65172097 420.77206449 -417.14974039 431.68114951 -411.64453125 441.390625 C-410.20765967 443.40917918 -408.70325191 445.20212299 -407 447 C-406.48695313 447.55300781 -405.97390625 448.10601563 -405.4453125 448.67578125 C-394.96284023 458.78208825 -380.9784898 457.58179163 -367.46411133 457.54589844 C-365.28516912 457.55464238 -363.10623332 457.56513101 -360.92730713 457.57722473 C-355.03759905 457.6050045 -349.14810133 457.60849118 -343.25833726 457.60750484 C-337.09370136 457.61064083 -330.92915925 457.63627334 -324.76457214 457.65948486 C-313.10246166 457.69999582 -301.44040703 457.72037409 -289.77823704 457.73345876 C-276.49643775 457.74934539 -263.21475217 457.78776805 -249.93300593 457.82805204 C-222.6220358 457.91038393 -195.31106835 457.964518 -168 458 C-168.46784912 457.07977051 -168.93569824 456.15954102 -169.41772461 455.21142578 C-178.12684462 437.53517758 -179.25423224 418.13331725 -176 399 C-175.80664062 397.845 -175.61328125 396.69 -175.4140625 395.5 C-174.97270886 392.99259961 -174.50652457 390.49490294 -174 388 C-173.34 388 -172.68 388 -172 388 C-171.75378906 386.98550781 -171.50757813 385.97101563 -171.25390625 384.92578125 C-170.11171936 380.94961183 -168.21228206 377.62029998 -165.9375 374.1875 C-165.54119385 373.58220459 -165.1448877 372.97690918 -164.73657227 372.35327148 C-152.34284975 353.85689468 -135.75184944 343.0327192 -115 336 C-115.78375 335.05125 -116.5675 334.1025 -117.375 333.125 C-117.81585938 332.59132813 -118.25671875 332.05765625 -118.7109375 331.5078125 C-119.75250992 330.28948839 -120.86660097 329.13339903 -122 328 C-130.08764108 314.34596627 -132.36206482 298.00410965 -128.8125 282.5625 C-126.01810932 273.04857454 -121.32233335 265.55465256 -115 258 C-114.25234375 257.03964844 -113.5046875 256.07929688 -112.734375 255.08984375 C-109.81594437 251.59940953 -106.42082765 248.97262087 -102.75 246.3125 C-101.7607251 245.58752319 -101.7607251 245.58752319 -100.75146484 244.84790039 C-95.99756588 241.46614689 -91.6746814 239.46759002 -86 238 C-85.67 237.34 -85.34 236.68 -85 236 C-59.44479459 224.53047499 -27.63559843 221.74727579 -1.26123047 231.71459961 C2.18672517 233.08450023 5.59911886 234.51693953 9 236 C9 236.66 9 237.32 9 238 C9.58136719 238.268125 10.16273438 238.53625 10.76171875 238.8125 C20.42063679 243.93695215 27.41975593 253.85597514 31 264 C33.83146141 275.78771525 32.24246045 287.76008441 26.71484375 298.49609375 C19.91557794 309.42416164 10.91599869 316.43989116 -1 321 C-3.32175867 321.40619237 -5.65509203 321.76133252 -8 322 C-8 322.66 -8 323.32 -8 324 C-22.21359223 324.26213592 -22.21359223 324.26213592 -29 322 C-28.67 321.34 -28.34 320.68 -28 320 C-28.556875 319.896875 -29.11375 319.79375 -29.6875 319.6875 C-33.56317903 318.5352711 -36.2715394 317.22513828 -38.375 313.6875 C-39.12496842 310.46263579 -38.79843674 308.19374698 -38 305 C-36.28805036 303.28805036 -34.11597308 303.89910723 -31.83178711 303.86328125 C-22.15737581 303.63417075 -14.07215084 301.82760071 -6.8125 294.91796875 C-0.04567744 286.86826942 1.65380257 278.83713688 1.41796875 268.44921875 C0.63014671 261.94784622 -1.89943724 257.04932952 -6.5625 252.5 C-14.82657565 247.41441498 -22.71148818 245.4767379 -32.375 245.625 C-33.29458496 245.63080078 -34.21416992 245.63660156 -35.16162109 245.64257812 C-41.07388525 245.75553134 -46.41953983 246.37964499 -52.0390625 248.34375 C-54 249 -54 249 -57 249 C-57.33 249.66 -57.66 250.32 -58 251 C-60.12094652 252.09144675 -62.27283427 253.12305569 -64.4375 254.125 C-79.74108087 261.55794553 -89.91903531 273.03108011 -96 289 C-96.433125 290.11375 -96.86625 291.2275 -97.3125 292.375 C-99.31295793 302.92286908 -98.59773724 313.67043793 -93 323 C-89.80445043 326.59499326 -87.7154798 328.80822128 -82.7668457 329.15771484 C-81.91179443 329.17527832 -81.05674316 329.1928418 -80.17578125 329.2109375 C-79.22896484 329.23929687 -78.28214844 329.26765625 -77.30664062 329.296875 C-75.33025507 329.34844409 -73.35366836 329.39286247 -71.37695312 329.4296875 C-64.24464791 329.66116191 -57.9573912 330.26441314 -52.5 335.3125 C-50.6549988 338.61812715 -50.39014679 340.26464907 -51 344 C-53.30147159 348.34722411 -55.41043816 351.14464521 -60 353 C-63.65980294 353.52725975 -67.30834144 353.81250771 -71 354 C-71 353.34 -71 352.68 -71 352 C-72.2375 351.855625 -73.475 351.71125 -74.75 351.5625 C-76.90764971 351.29845196 -78.90646011 351.02630809 -81 350.4375 C-89.69065246 348.53641978 -99.04223527 351.00563139 -106.5546875 355.54296875 C-108.82525007 357.25963976 -110.91746678 359.06026906 -113 361 C-113.68707031 361.62003906 -114.37414062 362.24007813 -115.08203125 362.87890625 C-129.28559937 376.3220539 -137.65729346 395.05472374 -138.25 414.5625 C-138.12594226 425.57607025 -135.54257333 435.49218646 -130 445 C-129.34 444.67 -128.68 444.34 -128 444 C-127.9175 444.721875 -127.835 445.44375 -127.75 446.1875 C-126.02432173 452.65879353 -120.76401625 455.95239322 -115.34375 459.2890625 C-97.59339456 468.37160419 -74.48499965 470.27334707 -55.47265625 464.3359375 C-48.13094598 461.51156752 -40.73818262 458.44469 -34.72265625 453.27734375 C-32 451 -32 451 -30 451 C-30 450.34 -30 449.68 -30 449 C-28.83375433 447.86805567 -27.66731757 446.73630765 -26.5 445.60546875 C-20.00406187 438.65278496 -15.97516885 430.47960108 -15.625 420.9375 C-15.87770489 414.13552673 -17.61693796 409.31189718 -22.25 404.3125 C-24.98517311 401.31877819 -24.98517311 401.31877819 -25.125 398.3125 C-23.47193493 394.91453291 -21.38531005 392.69265502 -18 391 C-9.40485021 390.12549348 -1.99345804 390.5746953 5 396 C9.74095319 401.09578545 12.67938591 407.01888665 13 414 C12.06505173 434.31802221 2.24816687 450.80089611 -12.51074219 464.39111328 C-23.8279025 474.40676507 -41.33728758 487 -57 487 C-57.33 487.66 -57.66 488.32 -58 489 C-60.31 489 -62.62 489 -65 489 C-65.33 489.66 -65.66 490.32 -66 491 C-66.721875 490.979375 -67.44375 490.95875 -68.1875 490.9375 C-70.92196855 490.90643715 -70.92196855 490.90643715 -73.22363281 491.49560547 C-76.60126853 492.10923503 -79.80119232 492.12975418 -83.234375 492.1328125 C-83.91300598 492.13376923 -84.59163696 492.13472595 -85.29083252 492.13571167 C-86.71618747 492.13638898 -88.14154559 492.13456614 -89.56689453 492.13037109 C-91.75690528 492.12498301 -93.94671405 492.13034818 -96.13671875 492.13671875 C-97.52343795 492.13605854 -98.91015703 492.13477857 -100.296875 492.1328125 C-101.55854492 492.13168457 -102.82021484 492.13055664 -104.12011719 492.12939453 C-107 492 -107 492 -108 491 C-109.093125 491.020625 -110.18625 491.04125 -111.3125 491.0625 C-114.96524256 491.00058911 -115.92686671 490.57118131 -119 489 C-125.49577629 487.6511879 -132.27124026 487.86643543 -138.87214661 487.89993286 C-139.93309325 487.90119513 -140.9940399 487.90245741 -142.08713645 487.90375793 C-145.62427989 487.90911377 -149.16136128 487.9216352 -152.69848633 487.93408203 C-155.24188648 487.93927812 -157.78528767 487.94398567 -160.32868958 487.94824219 C-165.79771218 487.95816779 -171.26671656 487.97095818 -176.73572731 487.98596573 C-185.38880741 488.00941557 -194.04188879 488.02236125 -202.69499207 488.03366089 C-205.66044719 488.03766173 -208.62590222 488.04173049 -211.59135723 488.04582024 C-212.70282065 488.04734908 -212.70282065 488.04734908 -213.83673787 488.04890881 C-222.2590815 488.06063649 -230.68142109 488.07451868 -239.10375977 488.08935547 C-239.87308237 488.0907079 -240.64240497 488.09206033 -241.43504038 488.09345375 C-253.9003071 488.1156317 -266.36554682 488.14550587 -278.83079211 488.17732288 C-291.64998825 488.20976171 -304.4691703 488.23059565 -317.28840274 488.24159515 C-325.18366249 488.24879965 -333.07878799 488.26543653 -340.97399845 488.29439591 C-347.03033912 488.3157178 -353.08659046 488.32124426 -359.14297295 488.32102966 C-361.6196766 488.32344528 -364.0963816 488.33099486 -366.57305145 488.34415817 C-369.96448771 488.36142649 -373.35543838 488.35994677 -376.74690247 488.35403442 C-377.71745585 488.36345507 -378.68800923 488.37287571 -379.68797332 488.38258183 C-397.51956411 488.27921455 -416.3677185 480.67431904 -429 468 C-434.92055243 460.69640652 -439.74207382 452.85389349 -443 444 C-443.31839844 443.13761719 -443.63679688 442.27523438 -443.96484375 441.38671875 C-449.23323986 424.22194434 -446.78519817 404.98208862 -438.75 389.1875 C-430.89410563 375.53161553 -420.23119995 364.94417996 -407.0625 356.4375 C-406.02907471 355.75913086 -404.99564941 355.08076172 -403.9309082 354.38183594 C-394.10962916 347.97739145 -384.12347154 341.84156132 -374.11328125 335.73828125 C-368.8357521 332.51979738 -363.5940562 329.24979821 -358.375 325.9375 C-351.26817988 321.428897 -344.1401245 316.9556896 -337 312.5 C-329.65444202 307.91499329 -322.31776846 303.31673976 -315 298.6875 C-307.44769657 293.91015238 -299.87736179 289.16273914 -292.29541016 284.43261719 C-287.69542835 281.56166492 -283.09798241 278.68665286 -278.5 275.8125 C-276.42709253 274.51691237 -274.35417576 273.22133962 -272.28125 271.92578125 C-271.24097656 271.27561035 -270.20070313 270.62543945 -269.12890625 269.95556641 C-259.96875 264.23046875 -259.96875 264.23046875 -256.98120117 262.36328125 C-254.99174403 261.11985017 -253.00232353 259.87636047 -251.01293945 258.6328125 C-245.95089284 255.46867211 -240.88817733 252.30561093 -235.82421875 249.14453125 C-226.53664956 243.3456899 -217.25397086 237.53984731 -208 231.6875 C-194.98373436 223.45851544 -181.91775088 215.32999713 -168.75073242 207.34375 C-159.42762361 201.6767166 -150.20130142 195.86220604 -141 190 C-141.33 189.34 -141.66 188.68 -142 188 C-141.21753906 187.96003906 -140.43507813 187.92007813 -139.62890625 187.87890625 C-134.39765309 186.61191813 -130.43047996 183.83270794 -125.9375 180.9375 C-125.00301025 180.34767334 -124.06852051 179.75784668 -123.10571289 179.15014648 C-120.39870036 177.44132874 -117.69882889 175.72170267 -115 174 C-103.08115434 166.44572211 -91.97304577 159.82433904 -78 157 C-77.7525 155.7625 -77.505 154.525 -77.25 153.25 C-77.04117188 152.20585937 -77.04117188 152.20585937 -76.828125 151.140625 C-76.82713457 148.86266193 -76.82713457 148.86266193 -78.49609375 146.89453125 C-81.69494055 144.47418694 -85.00218724 143.48243342 -88.8125 142.4375 C-94.05953673 140.9446811 -99.07565919 139.37705056 -104 137 C-104.33 136.34 -104.66 135.68 -105 135 C-107.52733235 134.34444881 -107.52733235 134.34444881 -110 134 C-110 133.34 -110 132.68 -110 132 C-112.64 131.34 -115.28 130.68 -118 130 C-117.67 129.34 -117.34 128.68 -117 128 C-121.49225973 124.05614601 -125.99727508 120.13021999 -130.5546875 116.26171875 C-131.74604935 115.22169205 -132.88174274 114.11825726 -134 113 C-134 112.34 -134 111.68 -134 111 C-134.33 110.01 -134.66 109.02 -135 108 C-135.99 108 -136.98 108 -138 108 C-138 107.34 -138 106.68 -138 106 C-138.99 105.67 -139.98 105.34 -141 105 C-140.67 104.01 -140.34 103.02 -140 102 C-140.85214966 99.68949201 -140.85214966 99.68949201 -142.1875 97.1875 C-152.58414842 75.40956235 -152.68910427 51.23694125 -144.8671875 28.7421875 C-136.349323 6.68599533 -118.59533071 -10.01809951 -97.625 -20.25 C-91.19275313 -23.09532332 -84.91625615 -24.79683535 -78 -26 C-76.73800781 -26.25136719 -75.47601563 -26.50273437 -74.17578125 -26.76171875 C-46.8009959 -31.58052591 -19.21349663 -19.06280254 0 0 Z M292 409 C293 412 293 412 293 412 Z " fill="#B89088" transform="translate(452,157)"/>
<path d="M0 0 C0.94558061 -0.0023488 1.89116122 -0.0046976 2.86539578 -0.00711757 C3.90116844 0.0005527 4.93694109 0.00822297 6.0041008 0.01612568 C7.10695569 0.01638368 8.20981058 0.01664169 9.34608531 0.01690751 C13.05531549 0.02030928 16.76433526 0.03817885 20.47352219 0.05599689 C23.12792306 0.06151045 25.78231519 0.06624534 28.43671799 0.0700655 C34.90930731 0.08131731 41.38181351 0.10362493 47.85435691 0.13005617 C53.12108918 0.15143663 58.38782183 0.16922791 63.65457535 0.18447018 C64.77918044 0.18774044 64.77918044 0.18774044 65.92650484 0.19107676 C67.44975099 0.19550252 68.97299716 0.19992538 70.49624333 0.20434538 C84.79213519 0.24635876 99.08795483 0.30146149 113.38378486 0.3605356 C126.43508464 0.41406551 139.48637093 0.45139116 152.53774515 0.48093423 C165.95350467 0.51144792 179.36918941 0.55295652 192.78487849 0.60621911 C200.31054031 0.63590834 207.83615704 0.66137009 215.361866 0.67534161 C221.77624875 0.68737366 228.19049394 0.70990255 234.60479084 0.74549749 C237.87157686 0.76334888 241.13817075 0.77506694 244.40501022 0.77694988 C257.69927507 0.78764399 270.35137332 1.00160905 283.30457687 4.23885822 C282.97457687 5.22885822 282.64457687 6.21885822 282.30457687 7.23885822 C277.99120683 8.2191696 276.15353575 8.23176653 272.30457687 6.23885822 C265.80880058 4.89004612 259.03333661 5.10529365 252.43243027 5.13879108 C251.37148362 5.14005336 250.31053697 5.14131563 249.21744043 5.14261615 C245.68029698 5.147972 242.14321559 5.16049342 238.60609055 5.17294025 C236.06269039 5.17813635 233.5192892 5.1828439 230.9758873 5.18710041 C225.5068647 5.19702601 220.03786031 5.2098164 214.56884956 5.22482395 C205.91576946 5.24827379 197.26268808 5.26121948 188.60958481 5.27251911 C185.64412968 5.27651995 182.67867465 5.28058872 179.71321964 5.28467846 C178.60175622 5.2862073 178.60175622 5.2862073 177.467839 5.28776703 C169.04549538 5.29949472 160.62315579 5.3133769 152.20081711 5.32821369 C151.04683321 5.33024234 151.04683321 5.33024234 149.8695365 5.33231197 C137.40426978 5.35448992 124.93903005 5.3843641 112.47378477 5.4161811 C99.65458862 5.44861993 86.83540658 5.46945387 74.01617414 5.48045337 C66.12091438 5.48765787 58.22578889 5.50429475 50.33057842 5.53325413 C44.27423775 5.55457602 38.21798641 5.56010248 32.16160393 5.55988789 C29.68490027 5.56230351 27.20819528 5.56985308 24.73152542 5.5830164 C21.34008916 5.60028471 17.94913849 5.59880499 14.55767441 5.59289265 C13.58712103 5.60231329 12.61656764 5.61173393 11.61660355 5.62144005 C4.50781693 5.5802314 -1.87727677 4.20780917 -8.69542313 2.23885822 C-5.6607639 0.48714844 -3.49063643 -0.00928601 0 0 Z " fill="#866C64" transform="translate(60.6954231262207,639.7611417770386)"/>
<path d="M0 0 C0.33 0 0.66 0 1 0 C1.33 2.64 1.66 5.28 2 8 C13.87072631 9.23525818 25.72172694 9.1554427 37.64233398 9.16113281 C39.91707437 9.16576887 42.19181399 9.17079458 44.46655273 9.17617798 C50.61322083 9.18922275 56.75987804 9.19573063 62.9065578 9.20018864 C66.75326414 9.20313048 70.59996757 9.2072372 74.44667244 9.21169281 C85.12465417 9.22378359 95.80263234 9.23417321 106.48062038 9.2375679 C107.50208286 9.23789725 107.50208286 9.23789725 108.54418093 9.23823325 C109.56787266 9.23856067 109.56787266 9.23856067 110.61224502 9.2388947 C111.99483327 9.23933815 113.37742152 9.23978471 114.76000977 9.24023438 C115.44579914 9.2404558 116.13158852 9.24067723 116.83815939 9.24090537 C127.95356403 9.24485464 139.06890319 9.26232069 150.18428253 9.2855939 C161.63179392 9.30936685 173.07925772 9.32151483 184.52679688 9.32293582 C190.94006239 9.32398105 197.35323514 9.32982961 203.76647758 9.34775543 C209.79862419 9.364291 215.83060882 9.366365 221.86277008 9.35761642 C224.06772103 9.35684916 226.2726809 9.36114751 228.47760963 9.37107468 C240.12052019 9.42039336 250.70073717 9.04594286 262 6 C263.66409172 5.654041 265.33000894 5.31625739 267 5 C267.33 5.99 267.66 6.98 268 8 C267.34 8 266.68 8 266 8 C266 8.66 266 9.32 266 10 C248.97390989 13.4567008 232.39581056 14.29698049 215.08374023 14.2746582 C212.82823011 14.27901504 210.57272146 14.28420139 208.31721497 14.29014587 C202.24348111 14.30343323 196.16980986 14.30412677 190.09606433 14.30158257 C185.01346406 14.30050724 179.93087618 14.30540983 174.84827858 14.310188 C162.17933852 14.32187463 149.5104435 14.32107821 136.84150393 14.31463119 C125.85485898 14.30944966 114.86830235 14.32075837 103.88167488 14.33972941 C92.56740296 14.35911511 81.25318504 14.36707208 69.93889195 14.36360615 C63.5996609 14.36179454 57.26051104 14.3644188 50.92129326 14.37832069 C44.96953734 14.39088814 39.01795915 14.38896511 33.06620598 14.37590981 C30.88453613 14.37354327 28.7028538 14.37628145 26.52119827 14.38453293 C23.54036942 14.39499387 20.56013795 14.38690511 17.57933044 14.3742218 C16.28930143 14.38528323 16.28930143 14.38528323 14.97321123 14.39656812 C9.3495657 14.34632542 5.12478732 13.36963329 0 11 C-1.26026798 8.47946405 -0.91874445 7.1457902 -0.5625 4.375 C-0.46066406 3.55773437 -0.35882813 2.74046875 -0.25390625 1.8984375 C-0.17011719 1.27195312 -0.08632813 0.64546875 0 0 Z " fill="#876C63" transform="translate(466,631)"/>
<path d="M0 0 C18.15 0 36.3 0 55 0 C55 0.66 55 1.32 55 2 C48.9135618 3.07320356 42.9869266 3.12907016 36.81640625 3.09765625 C35.76090073 3.0962413 34.7053952 3.09482635 33.61790466 3.09336853 C30.26607357 3.08779722 26.91431071 3.07525002 23.5625 3.0625 C21.28190201 3.05748129 19.00130297 3.05291903 16.72070312 3.04882812 C11.14711237 3.0378372 5.57356106 3.02112776 0 3 C0 2.01 0 1.02 0 0 Z " fill="#BF978F" transform="translate(606,615)"/>
<path d="M0 0 C0.495 1.98 0.495 1.98 1 4 C0.113125 3.979375 -0.77375 3.95875 -1.6875 3.9375 C-4.84526325 3.88810588 -4.84526325 3.88810588 -7.25268555 4.49780273 C-10.63442357 5.1159699 -13.83167516 5.11180381 -17.26953125 5.09765625 C-17.95053391 5.0962413 -18.63153656 5.09482635 -19.33317566 5.09336853 C-21.49299647 5.08780298 -23.65271089 5.07525703 -25.8125 5.0625 C-27.28320162 5.05748054 -28.75390488 5.05291841 -30.22460938 5.04882812 C-33.8164404 5.03784488 -37.4082098 5.02060422 -41 5 C-41.33 4.34 -41.66 3.68 -42 3 C-39.21227367 0.21227367 -36.56856286 0.64853091 -32.83203125 0.5859375 C-31.76247444 0.55688828 -31.76247444 0.55688828 -30.67131042 0.5272522 C-28.38516289 0.46743163 -26.09896009 0.42115712 -23.8125 0.375 C-22.29099361 0.33680454 -20.76950848 0.29775189 -19.24804688 0.2578125 C-12.83120612 0.09605112 -6.4195228 -0.01978281 0 0 Z " fill="#906F67" transform="translate(386,644)"/>
<path d="M0 0 C0 0.33 0 0.66 0 1 C-0.7748877 1.0501123 -1.54977539 1.10022461 -2.34814453 1.15185547 C-20.90408828 2.30120312 -20.90408828 2.30120312 -39.3359375 4.625 C-42.93602788 5.13175759 -46.37222738 5.1451109 -50 5 C-37.54589716 -3.30273522 -14.32850191 -2.38808365 0 0 Z " fill="#C39C92" transform="translate(432,384)"/>
<path d="M0 0 C6.42987237 -0.96030561 10.39790543 2.33802385 15.5 5.75 C16.32886719 6.28882813 17.15773438 6.82765625 18.01171875 7.3828125 C19.62213683 8.43252858 21.22658065 9.49148059 22.82421875 10.56054688 C24.16423942 11.44707761 25.51864964 12.31279386 26.89453125 13.14257812 C30.81955549 15.53599983 30.81955549 15.53599983 31.875 18.25 C31.91625 18.8275 31.9575 19.405 32 20 C30.35063087 19.21572648 28.70558873 18.42234741 27.0625 17.625 C26.14597656 17.18414062 25.22945312 16.74328125 24.28515625 16.2890625 C22 15 22 15 21 13 C19.34015202 12.31653318 17.67163195 11.65411685 16 11 C10.46474348 8.01947726 5.06451319 4.73235099 0 1 C0 0.67 0 0.34 0 0 Z " fill="#8F6D65" transform="translate(513,408)"/>
<path d="M0 0 C0.66 0.99 1.32 1.98 2 3 C-3.81372794 8.03856421 -8.38691515 8.84856432 -16 9 C-16 8.34 -16 7.68 -16 7 C-18.64 6.67 -21.28 6.34 -24 6 C-24 5.67 -24 5.34 -24 5 C-23.12263184 4.93268677 -23.12263184 4.93268677 -22.22753906 4.86401367 C-19.56706843 4.65215747 -16.90873854 4.42004807 -14.25 4.1875 C-12.86941406 4.08211914 -12.86941406 4.08211914 -11.4609375 3.97460938 C-10.12675781 3.85375977 -10.12675781 3.85375977 -8.765625 3.73046875 C-7.94868164 3.66239014 -7.13173828 3.59431152 -6.29003906 3.52416992 C-3.59431328 2.90714186 -2.08444317 1.78098508 0 0 Z " fill="#8D6E67" transform="translate(397,502)"/>
<path d="M0 0 C0.57073242 0.3727002 1.14146484 0.74540039 1.72949219 1.12939453 C-5.34491771 5.99618716 -12.57248748 10.32363167 -20.27050781 14.12939453 C-20.27050781 12.80939453 -20.27050781 11.48939453 -20.27050781 10.12939453 C-17.6963207 7.70630445 -14.55143091 6.0580727 -11.52050781 4.25439453 C-10.69550781 3.73103516 -9.87050781 3.20767578 -9.02050781 2.66845703 C-8.22128906 2.18376953 -7.42207031 1.69908203 -6.59863281 1.19970703 C-5.86547852 0.75385254 -5.13232422 0.30799805 -4.37695312 -0.15136719 C-2.27050781 -0.87060547 -2.27050781 -0.87060547 0 0 Z " fill="#917168" transform="translate(98.2705078125,511.87060546875)"/>
<path d="M0 0 C-3.92385117 3.34281936 -7.99091588 5.87045147 -12.5 8.3125 C-13.47646484 8.8703418 -13.47646484 8.8703418 -14.47265625 9.43945312 C-17.51200953 11.08807203 -19.47825584 12.04736888 -22.96875 11.73046875 C-23.97421875 11.36888672 -23.97421875 11.36888672 -25 11 C-21.44716335 8.14149945 -17.61595751 5.9847436 -13.625 3.8125 C-12.97789062 3.44447266 -12.33078125 3.07644531 -11.6640625 2.69726562 C-7.60426912 0.49138999 -4.74122698 -0.447701 0 0 Z " fill="#8E6960" transform="translate(430,628)"/>
<path d="M0 0 C2.31 0.33 4.62 0.66 7 1 C7 1.66 7 2.32 7 3 C7.66 3 8.32 3 9 3 C9 3.66 9 4.32 9 5 C9.66 5 10.32 5 11 5 C11 5.66 11 6.32 11 7 C11.66 7 12.32 7 13 7 C14.32421875 8.390625 14.32421875 8.390625 15.6875 10.25 C16.14511719 10.85328125 16.60273437 11.4565625 17.07421875 12.078125 C18 14 18 14 17.64453125 16.234375 C17.43183594 16.81703125 17.21914063 17.3996875 17 18 C15.66666667 16.66666667 14.33333333 15.33333333 13 14 C12.29875 13.319375 11.5975 12.63875 10.875 11.9375 C9 10 9 10 7 7 C5.989375 6.34 4.97875 5.68 3.9375 5 C1 3 1 3 0 0 Z " fill="#9C7D75" transform="translate(725,541)"/>
<path d="M0 0 C0.8357959 0.57693604 0.8357959 0.57693604 1.68847656 1.16552734 C-1.71175938 3.39999355 -5.13392899 5.59830442 -8.56152344 7.79052734 C-10.01365234 8.74572266 -10.01365234 8.74572266 -11.49511719 9.72021484 C-12.4296875 10.31318359 -13.36425781 10.90615234 -14.32714844 11.51708984 C-15.18598633 12.07219238 -16.04482422 12.62729492 -16.9296875 13.19921875 C-19.31152344 14.16552734 -19.31152344 14.16552734 -21.62304688 13.33105469 C-22.18024414 12.94643066 -22.73744141 12.56180664 -23.31152344 12.16552734 C-19.9112875 9.93106114 -16.48911788 7.73275026 -13.06152344 5.54052734 C-11.60939453 4.58533203 -11.60939453 4.58533203 -10.12792969 3.61083984 C-9.19335938 3.01787109 -8.25878906 2.42490234 -7.29589844 1.81396484 C-6.0076416 0.98131104 -6.0076416 0.98131104 -4.69335938 0.13183594 C-2.31152344 -0.83447266 -2.31152344 -0.83447266 0 0 Z " fill="#937067" transform="translate(274.3115234375,401.83447265625)"/>
<path d="M0 0 C5.67115222 0.82866151 10.98691001 2.41244687 16.46484375 4.0625 C23.56357694 5.94503698 30.63779311 6.25813765 37.9375 6.5625 C38.90751953 6.60568359 39.87753906 6.64886719 40.87695312 6.69335938 C43.25118601 6.79862093 45.62550921 6.90075707 48 7 C48 7.33 48 7.66 48 8 C12.33514284 8.60425276 12.33514284 8.60425276 0 1 C0 0.67 0 0.34 0 0 Z " fill="#C6A398" transform="translate(336,618)"/>
<path d="M0 0 C3.18742115 -0.05865035 6.37470118 -0.09381259 9.5625 -0.125 C10.45775391 -0.14175781 11.35300781 -0.15851563 12.27539062 -0.17578125 C17.60089905 -0.21479596 21.96370689 0.24524218 27 2 C26.67 2.99 26.34 3.98 26 5 C24.7315625 4.89171875 24.7315625 4.89171875 23.4375 4.78125 C15.97764818 4.14257615 15.97764818 4.14257615 8.5 4.125 C4.71790028 3.98992501 2.95625999 3.30957812 0 1 C0 0.67 0 0.34 0 0 Z " fill="#82635C" transform="translate(380,157)"/>
<path d="M0 0 C4.64924856 -0.45358523 7.26152987 0.43131629 11.19140625 2.92578125 C13.04340157 4.02577847 14.858247 4.75351269 16.875 5.5 C20 7 20 7 20.9375 9.1875 C20.958125 9.785625 20.97875 10.38375 21 11 C17.1936543 10.32829194 13.64793184 9.27253436 10 8 C10 7.34 10 6.68 10 6 C8.35 5.67 6.7 5.34 5 5 C5 4.34 5 3.68 5 3 C2.525 2.01 2.525 2.01 0 1 C0 0.67 0 0.34 0 0 Z " fill="#8F6C64" transform="translate(337,286)"/>
<path d="M0 0 C6.70212766 1.93617021 6.70212766 1.93617021 9 5 C9 5.66 9 6.32 9 7 C9.66 7 10.32 7 11 7 C12.54296875 9.046875 12.54296875 9.046875 14.1875 11.75 C15.01314453 13.07257813 15.01314453 13.07257813 15.85546875 14.421875 C17 17 17 17 16.67578125 19.328125 C16.34126953 20.15570313 16.34126953 20.15570313 16 21 C15.71125 20.360625 15.4225 19.72125 15.125 19.0625 C14.17176549 16.84793921 14.17176549 16.84793921 12 16 C11.04111808 14.65409947 10.13137713 13.27288309 9.25 11.875 C6.46332439 7.58516685 3.40639823 3.81192183 0 0 Z " fill="#AA8176" transform="translate(426,172)"/>
<path d="M0 0 C1.79493393 5.91272354 0.07304889 10.77841134 -2.5546875 16.21875 C-7.27345138 24.72467631 -7.27345138 24.72467631 -10.2265625 25.84375 C-11.10441406 25.92109375 -11.10441406 25.92109375 -12 26 C-10.72292443 23.43254599 -9.42734157 20.87500417 -8.125 18.3203125 C-7.41655698 16.92193056 -6.70822685 15.52349143 -6 14.125 C-5.64421875 13.43019531 -5.2884375 12.73539063 -4.921875 12.01953125 C-2.9350537 8.08295621 -1.27558277 4.23865525 0 0 Z " fill="#AB8579" transform="translate(770,592)"/>
<path d="M0 0 C0.92065247 0.02009628 1.84130493 0.04019257 2.78985596 0.06089783 C3.77540466 0.08793289 4.76095337 0.11496796 5.77636719 0.14282227 C6.79172546 0.16643326 7.80708374 0.19004425 8.85321045 0.21437073 C12.09336744 0.29088889 15.33327828 0.37496449 18.57324219 0.45922852 C20.77114685 0.51246104 22.96906348 0.56520136 25.16699219 0.61743164 C30.55256086 0.74648801 35.93794698 0.88174831 41.32324219 1.02172852 C41.32324219 1.35172852 41.32324219 1.68172852 41.32324219 2.02172852 C34.68499459 2.2152266 28.04645801 2.3926579 21.4074707 2.55883789 C19.14825688 2.61729523 16.88913567 2.6794525 14.63012695 2.74536133 C11.38607647 2.83937113 8.14192736 2.92014066 4.89746094 2.99829102 C3.88487717 3.03048737 2.8722934 3.06268372 1.82902527 3.09585571 C0.41790215 3.12611343 0.41790215 3.12611343 -1.02172852 3.15698242 C-1.85001663 3.17918854 -2.67830475 3.20139465 -3.5316925 3.22427368 C-5.67675781 3.02172852 -5.67675781 3.02172852 -8.67675781 1.02172852 C-5.68993945 0.14959015 -3.10550117 -0.07678437 0 0 Z " fill="#AF7A6A" transform="translate(60.6767578125,639.978271484375)"/>
<path d="M0 0 C0.57073242 0.37560059 1.14146484 0.75120117 1.72949219 1.13818359 C-0.39224411 2.47696932 -2.51755969 3.80933835 -4.64550781 5.13818359 C-5.24878906 5.51974609 -5.85207031 5.90130859 -6.47363281 6.29443359 C-11.04394531 9.13818359 -11.04394531 9.13818359 -13.27050781 9.13818359 C-13.27050781 9.79818359 -13.27050781 10.45818359 -13.27050781 11.13818359 C-15.08300781 11.76318359 -15.08300781 11.76318359 -17.27050781 12.13818359 C-18.26050781 11.47818359 -19.25050781 10.81818359 -20.27050781 10.13818359 C-17.37014228 8.23699131 -14.44810398 6.37211736 -11.52050781 4.51318359 C-10.69550781 3.97177734 -9.87050781 3.43037109 -9.02050781 2.87255859 C-8.22128906 2.36982422 -7.42207031 1.86708984 -6.59863281 1.34912109 C-5.86547852 0.87780762 -5.13232422 0.40649414 -4.37695312 -0.07910156 C-2.27050781 -0.86181641 -2.27050781 -0.86181641 0 0 Z " fill="#97726A" transform="translate(295.2705078125,388.86181640625)"/>
<path d="M0 0 C0.66 0.33 1.32 0.66 2 1 C1.67 1.99 1.34 2.98 1 4 C-0.32303717 4.3721042 -1.65737935 4.70630173 -3 5 C-3.33 5.66 -3.66 6.32 -4 7 C-5.77734375 8 -5.77734375 8 -7.9375 9 C-10.48615488 10.18413003 -11.98757159 10.98757159 -14 13 C-14.99 12.01 -15.98 11.02 -17 10 C-14.54220129 8.51993873 -12.08378912 7.04091426 -9.625 5.5625 C-8.92632812 5.14162109 -8.22765625 4.72074219 -7.5078125 4.28710938 C-6.8375 3.88427734 -6.1671875 3.48144531 -5.4765625 3.06640625 C-4.85861816 2.69459229 -4.24067383 2.32277832 -3.60400391 1.93969727 C-2.42685882 1.250073 -1.22024659 0.6101233 0 0 Z " fill="#8D6B62" transform="translate(363,345)"/>
<path d="M0 0 C2 1 2 1 3 3 C2.34 3 1.68 3 1 3 C1 3.66 1 4.32 1 5 C-5.30338787 6.3792223 -10.6496923 7.41117949 -17 6 C-17 5.34 -17 4.68 -17 4 C-16.02417969 3.79503906 -15.04835938 3.59007812 -14.04296875 3.37890625 C-12.77066406 3.10949219 -11.49835937 2.84007812 -10.1875 2.5625 C-8.92292969 2.29566406 -7.65835938 2.02882813 -6.35546875 1.75390625 C-3.02954587 1.06572114 -3.02954587 1.06572114 0 0 Z " fill="#99746B" transform="translate(731,636)"/>
<path d="M0 0 C2.65264645 0.78346529 4.86974071 1.75316426 7.29296875 3.08203125 C8.44345703 3.69498047 8.44345703 3.69498047 9.6171875 4.3203125 C11.8342664 5.93629732 12.60048232 7.24900379 13.60546875 9.76953125 C10.40151459 9.76953125 8.51147136 9.02618103 5.60546875 7.76953125 C5.60546875 7.10953125 5.60546875 6.44953125 5.60546875 5.76953125 C4.28546875 6.09953125 2.96546875 6.42953125 1.60546875 6.76953125 C1.26515625 5.81046875 1.26515625 5.81046875 0.91796875 4.83203125 C-0.24704021 2.49759464 -0.24704021 2.49759464 -3.01953125 2.01953125 C-3.80328125 1.93703125 -4.58703125 1.85453125 -5.39453125 1.76953125 C-2.39453125 -0.23046875 -2.39453125 -0.23046875 0 0 Z " fill="#8E736B" transform="translate(412.39453125,161.23046875)"/>
<path d="M0 0 C-0.33 0.99 -0.66 1.98 -1 3 C-9.23104693 2.03971119 -9.23104693 2.03971119 -13 1 C-16.93323711 0.10799801 -20.79152277 -0.27818848 -24.8125 -0.5625 C-25.97394531 -0.64628906 -27.13539063 -0.73007812 -28.33203125 -0.81640625 C-29.21246094 -0.87699219 -30.09289062 -0.93757813 -31 -1 C-31 -1.33 -31 -1.66 -31 -2 C-27.52236975 -2.25832274 -24.04327902 -2.47620671 -20.5625 -2.6875 C-19.58861328 -2.76033203 -18.61472656 -2.83316406 -17.61132812 -2.90820312 C-11.08698659 -3.27915231 -6.02167349 -2.57184461 0 0 Z " fill="#725A54" transform="translate(411,343)"/>
<path d="M0 0 C0.99 0.33 1.98 0.66 3 1 C-1.59474404 6.39882424 -6.27676273 11.71333087 -11 17 C-11.66 16.67 -12.32 16.34 -13 16 C-11.59368017 12.88103324 -9.90245104 10.54597146 -7.625 8 C-7.00753906 7.3090625 -6.39007813 6.618125 -5.75390625 5.90625 C-3.889351 3.87974006 -1.9867193 1.90725053 0 0 Z " fill="#8E6C63" transform="translate(339,513)"/>
<path d="M0 0 C-10.66666667 9 -10.66666667 9 -15 9 C-15 9.66 -15 10.32 -15 11 C-16.32 11.33 -17.64 11.66 -19 12 C-19 10.68 -19 9.36 -19 8 C-16.96153377 6.34261203 -15.11706046 5.06599201 -12.875 3.75 C-12.02035156 3.20472656 -12.02035156 3.20472656 -11.1484375 2.6484375 C-7.28345305 0.31187872 -4.48656816 -0.40910956 0 0 Z " fill="#8D6B62" transform="translate(337,364)"/>
<path d="M0 0 C0.66 0.33 1.32 0.66 2 1 C1.67 1.99 1.34 2.98 1 4 C-0.65204456 4.70211894 -2.31923769 5.36971413 -4 6 C-4.33 6.66 -4.66 7.32 -5 8 C-6.32467746 8.6837045 -7.65863633 9.34964186 -9 10 C-9.66 10.66 -10.32 11.32 -11 12 C-13.125 12.625 -13.125 12.625 -15 13 C-13.66251301 7.98442378 -10.78623515 6.10748326 -6.5 3.625 C-5.90574219 3.25761719 -5.31148437 2.89023437 -4.69921875 2.51171875 C-3.17499627 1.59993781 -1.59027957 0.79095484 0 0 Z " fill="#946E67" transform="translate(222,432)"/>
<path d="M0 0 C-2.72412697 3.08539112 -6.09188781 5.11188908 -9.5625 7.25 C-10.15224609 7.62640625 -10.74199219 8.0028125 -11.34960938 8.390625 C-12.86105004 9.3260331 -14.42771031 10.17093646 -16 11 C-16.66 10.67 -17.32 10.34 -18 10 C-18 9.34 -18 8.68 -18 8 C-15.96370903 6.51526661 -13.95716704 5.18447308 -11.8125 3.875 C-11.23435547 3.50246094 -10.65621094 3.12992187 -10.06054688 2.74609375 C-6.57231937 0.59403475 -4.11108568 -0.48001377 0 0 Z " fill="#96766A" transform="translate(192,454)"/>
<path d="M0 0 C0.66 0.33 1.32 0.66 2 1 C1.36191406 1.76183594 0.72382813 2.52367187 0.06640625 3.30859375 C-4.84187788 9.36985695 -8.13501375 13.89917494 -8 22 C-10 20 -10 20 -10.15234375 18.1171875 C-9.47500536 11.04823774 -7.11980122 5.69820646 -1.6875 1 C-1.130625 0.67 -0.57375 0.34 0 0 Z " fill="#C5A196" transform="translate(474,618)"/>
<path d="M0 0 C0.52207031 0.39574219 1.04414063 0.79148438 1.58203125 1.19921875 C-1.34628145 3.15142722 -4.281112 4.73272525 -7.41796875 6.32421875 C-8.99578125 7.13246094 -8.99578125 7.13246094 -10.60546875 7.95703125 C-13.41796875 9.19921875 -13.41796875 9.19921875 -16.41796875 9.19921875 C-15.0824987 5.19280859 -12.63231453 4.27459602 -9.10546875 2.38671875 C-7.95433594 1.74089844 -6.80320312 1.09507812 -5.6171875 0.4296875 C-2.41796875 -0.80078125 -2.41796875 -0.80078125 0 0 Z " fill="#9C7C71" transform="translate(369.41796875,160.80078125)"/>
<path d="M0 0 C5.41061608 -0.51993908 8.00184561 0.89020132 12.375 4 C13.43460938 4.7425 14.49421875 5.485 15.5859375 6.25 C16.38257813 6.8275 17.17921875 7.405 18 8 C17.01 8.66 16.02 9.32 15 10 C1.19548872 2.39097744 1.19548872 2.39097744 0 0 Z " fill="#9A7C75" transform="translate(665,503)"/>
<path d="M0 0 C0.66 0.33 1.32 0.66 2 1 C1.34 2.32 0.68 3.64 0 5 C-1.91595968 5.08133791 -3.83291932 5.13934367 -5.75 5.1875 C-7.35101563 5.23970703 -7.35101563 5.23970703 -8.984375 5.29296875 C-12.30027855 4.97082786 -13.59016673 4.22851086 -16 2 C-15.01257813 1.93941406 -14.02515625 1.87882813 -13.0078125 1.81640625 C-11.72648437 1.73261719 -10.44515625 1.64882812 -9.125 1.5625 C-7.84882813 1.48128906 -6.57265625 1.40007812 -5.2578125 1.31640625 C-2.11699848 1.20793973 -2.11699848 1.20793973 0 0 Z " fill="#9A7A72" transform="translate(467,218)"/>
<path d="M0 0 C-0.33 0.99 -0.66 1.98 -1 3 C-5.21163627 3.95719006 -7.28909436 4.20335022 -11 2 C-12.99220557 1.31039038 -14.99105606 0.63920943 -17 0 C-17 -0.33 -17 -0.66 -17 -1 C-11.0853971 -2.59854133 -5.84715547 -1.25890714 0 0 Z " fill="#8E7168" transform="translate(344,644)"/>
<path d="M0 0 C1.8046875 0.16796875 1.8046875 0.16796875 4 1 C5.6328125 3.36328125 5.6328125 3.36328125 7.125 6.3125 C7.62257813 7.27800781 8.12015625 8.24351562 8.6328125 9.23828125 C9.08398438 10.14964844 9.53515625 11.06101562 10 12 C10.58394531 13.16595703 10.58394531 13.16595703 11.1796875 14.35546875 C11.45039063 14.89816406 11.72109375 15.44085937 12 16 C8.13218441 15.05141656 7.12180144 14.19648434 4.98046875 10.7421875 C4.36625782 9.46093028 3.76897376 8.17144259 3.1875 6.875 C2.87619141 6.21628906 2.56488281 5.55757812 2.24414062 4.87890625 C1.48135927 3.25946276 0.73866014 1.63058695 0 0 Z " fill="#98756A" transform="translate(10,603)"/>
<path d="M0 0 C0.99 0.33 1.98 0.66 3 1 C-2.96583144 13.85421412 -2.96583144 13.85421412 -8 18 C-7.62844013 13.04586841 -5.95768283 9.94903299 -3.25390625 5.9296875 C-2.00684859 4.01053958 -0.98587195 2.06345292 0 0 Z " fill="#A78177" transform="translate(457,592)"/>
<path d="M0 0 C4.16724644 -0.50820078 6.38439864 -0.00820058 9.6875 2.4375 C10.24824219 2.88996094 10.80898438 3.34242188 11.38671875 3.80859375 C13.10686487 5.20739801 13.10686487 5.20739801 16 6 C15.67 7.32 15.34 8.64 15 10 C13.39218107 9.2368139 11.78886862 8.46412942 10.1875 7.6875 C9.29417969 7.25824219 8.40085937 6.82898438 7.48046875 6.38671875 C5.18301768 5.10231697 3.73524507 3.94368292 2 2 C1.34 1.34 0.68 0.68 0 0 Z " fill="#9A7D75" transform="translate(694,521)"/>
<path d="M0 0 C0 0.33 0 0.66 0 1 C-1.32064453 1.38091797 -1.32064453 1.38091797 -2.66796875 1.76953125 C-3.82941406 2.11371094 -4.99085938 2.45789063 -6.1875 2.8125 C-7.91033203 3.31716797 -7.91033203 3.31716797 -9.66796875 3.83203125 C-12.76859616 4.91888658 -15.26404005 6.20178903 -18 8 C-18.33 7.01 -18.66 6.02 -19 5 C-12.54200016 -0.38166653 -8.2635722 -1.89768882 0 0 Z " fill="#84675E" transform="translate(361,506)"/>
<path d="M0 0 C5.02693031 -0.41276847 7.37850901 0.47562844 11.375 3.5 C12.24898437 4.1496875 13.12296875 4.799375 14.0234375 5.46875 C14.67570313 5.9740625 15.32796875 6.479375 16 7 C15.67 7.99 15.34 8.98 15 10 C11.37 8.02 7.74 6.04 4 4 C4 3.34 4 2.68 4 2 C2.68 1.34 1.36 0.68 0 0 Z " fill="#94736A" transform="translate(710,531)"/>
<path d="M0 0 C3.82220578 1.82801146 7.32653294 4.06805616 10.875 6.375 C10.545 7.365 10.215 8.355 9.875 9.375 C5.37959419 8.14898023 2.9934134 6.80525474 -0.125 3.375 C-1.44058703 2.35176564 -2.76877755 1.34373032 -4.125 0.375 C-2.125 -0.625 -2.125 -0.625 0 0 Z " fill="#917068" transform="translate(570.125,440.625)"/>
<path d="M0 0 C7.38546306 0.92318288 14.54747027 2.06553065 21 6 C21.33 6.99 21.66 7.98 22 9 C14.57646736 6.59236779 7.2332094 3.9299076 0 1 C0 0.67 0 0.34 0 0 Z " fill="#B6897C" transform="translate(408,134)"/>
<path d="M0 0 C0.33 1.32 0.66 2.64 1 4 C-0.27746094 3.68289063 -1.55492187 3.36578125 -2.87109375 3.0390625 C-7.93773099 1.91314311 -12.88720776 1.56771841 -18.0625 1.375 C-19.3609082 1.31699219 -19.3609082 1.31699219 -20.68554688 1.2578125 C-22.79006359 1.16479519 -24.8950009 1.08137331 -27 1 C-27 0.67 -27 0.34 -27 0 C-23.25044125 -0.19713345 -19.50034696 -0.3810316 -15.75 -0.5625 C-14.68652344 -0.61857422 -13.62304688 -0.67464844 -12.52734375 -0.73242188 C-10.99013672 -0.80493164 -10.99013672 -0.80493164 -9.421875 -0.87890625 C-8.47924805 -0.9260376 -7.53662109 -0.97316895 -6.56542969 -1.02172852 C-4.17740544 -1.00150258 -2.27325608 -0.69460602 0 0 Z " fill="#4D3F3C" transform="translate(438,401)"/>
<path d="M0 0 C3.27863638 3.1572054 6.28242887 6.35069019 9 10 C8.67 10.99 8.34 11.98 8 13 C5.37098712 11.47793991 3.15634036 10.15634036 1 8 C1 7.34 1 6.68 1 6 C0.67 5.01 0.34 4.02 0 3 C-0.99 3 -1.98 3 -3 3 C-3 2.34 -3 1.68 -3 1 C-2.01 0.67 -1.02 0.34 0 0 Z " fill="#AA8278" transform="translate(317,262)"/>
<path d="M0 0 C5.73491451 -0.88229454 8.76938812 1.49896975 13.2421875 4.6875 C13.82226562 5.120625 14.40234375 5.55375 15 6 C14.34 6.66 13.68 7.32 13 8 C12.01 8 11.02 8 10 8 C10 7.34 10 6.68 10 6 C9.278125 5.7525 8.55625 5.505 7.8125 5.25 C4.75286734 3.89016326 2.5326262 2.17082246 0 0 Z " fill="#95726A" transform="translate(614,471)"/>
<path d="M0 0 C1.09178911 3.27536732 0.93042848 4.04413619 0.00390625 7.23046875 C-0.22490234 8.03291016 -0.45371094 8.83535156 -0.68945312 9.66210938 C-0.93630859 10.49548828 -1.18316406 11.32886719 -1.4375 12.1875 C-1.68048828 13.03248047 -1.92347656 13.87746094 -2.17382812 14.74804688 C-2.77493493 16.8342411 -3.38647834 18.91742301 -4 21 C-4.33 21 -4.66 21 -5 21 C-5.39325819 14.02330843 -4.63096039 8.48343811 -2 2 C-1.34 2 -0.68 2 0 2 C0 1.34 0 0.68 0 0 Z " fill="#B6897C" transform="translate(309,184)"/>
<path d="M0 0 C11.10505474 7.69461915 11.10505474 7.69461915 14 13 C13.65234375 15.2109375 13.65234375 15.2109375 13 17 C12.39671875 16.25234375 11.7934375 15.5046875 11.171875 14.734375 C10.37265625 13.74953125 9.5734375 12.7646875 8.75 11.75 C7.96109375 10.77546875 7.1721875 9.8009375 6.359375 8.796875 C4.09277734 6.01702749 4.09277734 6.01702749 1.703125 3.765625 C0 2 0 2 0 0 Z " fill="#B6897C" transform="translate(446,154)"/>
<path d="M0 0 C0.70703125 1.7109375 0.70703125 1.7109375 1 4 C-0.36328125 6.2890625 -0.36328125 6.2890625 -2.3125 8.625 C-2.94800781 9.40101563 -3.58351563 10.17703125 -4.23828125 10.9765625 C-5.4438957 12.36128154 -6.70174097 13.70174097 -8 15 C-8.7421875 13.32421875 -8.7421875 13.32421875 -9 11 C-7.3828125 8.45703125 -7.3828125 8.45703125 -5.125 5.8125 C-4.38507813 4.93207031 -3.64515625 4.05164063 -2.8828125 3.14453125 C-1 1 -1 1 0 0 Z " fill="#997469" transform="translate(367,422)"/>
<path d="M0 0 C5.44933171 0.27246659 9.20788835 1.2445358 14 4 C14 4.99 14 5.98 14 7 C13.21625 6.731875 12.4325 6.46375 11.625 6.1875 C7.10760831 4.70766479 2.55729662 3.35097726 -2 2 C-1.34 1.34 -0.68 0.68 0 0 Z " fill="#8C6B63" transform="translate(361,296)"/>
<path d="M0 0 C-2.93253346 1.03551045 -5.87166938 2.05081838 -8.8125 3.0625 C-9.64587891 3.35705078 -10.47925781 3.65160156 -11.33789062 3.95507812 C-12.54155273 4.3659668 -12.54155273 4.3659668 -13.76953125 4.78515625 C-14.87711792 5.17006226 -14.87711792 5.17006226 -16.00708008 5.56274414 C-18 6 -18 6 -21 5 C-14.604238 0.82885087 -7.63197399 -2.10921836 0 0 Z " fill="#B58579" transform="translate(390,389)"/>
<path d="M0 0 C5.97897503 -0.74737188 9.32379721 1.6768102 14 5 C13.67 5.99 13.34 6.98 13 8 C11.02 7.34 9.04 6.68 7 6 C7 5.34 7 4.68 7 4 C6.21625 3.71125 5.4325 3.4225 4.625 3.125 C2 2 2 2 0 0 Z " fill="#917068" transform="translate(681,513)"/>
<path d="M0 0 C-3.52927766 2.90646395 -7.05230621 5.68287538 -11 8 C-11.99 7.67 -12.98 7.34 -14 7 C-14 6.34 -14 5.68 -14 5 C-12.61217515 4.1533966 -11.21430603 3.32324661 -9.8125 2.5 C-9.03519531 2.0359375 -8.25789062 1.571875 -7.45703125 1.09375 C-4.75896614 -0.10729647 -2.9193018 -0.20741043 0 0 Z " fill="#8E6E66" transform="translate(239,425)"/>
<path d="M0 0 C-3.46994436 3.9036874 -7.55224006 6.36588975 -12 9 C-12.33 8.01 -12.66 7.02 -13 6 C-11.78294994 4.98528829 -10.55073116 3.9887539 -9.3125 3 C-8.62800781 2.443125 -7.94351563 1.88625 -7.23828125 1.3125 C-4.61216944 -0.22741897 -2.99396644 -0.25168194 0 0 Z " fill="#9A766D" transform="translate(66,533)"/>
<path d="M0 0 C1.48280196 0.78483659 2.9611498 1.57809334 4.4375 2.375 C5.67306641 3.03628906 5.67306641 3.03628906 6.93359375 3.7109375 C9 5 9 5 10 7 C7.39417629 7.93065133 6.35801776 8.14917407 3.75 7.0625 C2.88375 6.5365625 2.88375 6.5365625 2 6 C2 5.34 2 4.68 2 4 C-0.475 3.01 -0.475 3.01 -3 2 C-2.01 1.34 -1.02 0.68 0 0 Z " fill="#8E6961" transform="translate(452,367)"/>
<path d="M0 0 C0.99 0.66 1.98 1.32 3 2 C0.03 4.97 -2.94 7.94 -6 11 C-6.99 10.67 -7.98 10.34 -9 10 C-6.1310659 6.49352499 -3.2682346 3.14718888 0 0 Z " fill="#8C6C65" transform="translate(350,170)"/>
<path d="M0 0 C5.8022175 -0.36263859 9.63999211 0.74315457 15 3 C12.68164713 4.45970366 11.38987957 5.03077997 8.625 4.8125 C5.54919903 3.86046637 2.8352523 2.5165303 0 1 C0 0.67 0 0.34 0 0 Z " fill="#8C6E66" transform="translate(40,636)"/>
<path d="M0 0 C-3.88672813 3.18005028 -7.89952133 6.10554447 -12 9 C-12.33 8.01 -12.66 7.02 -13 6 C-6.07061503 -0.88838269 -6.07061503 -0.88838269 0 0 Z " fill="#85675E" transform="translate(385,411)"/>
<path d="M0 0 C6.14587738 0.2410148 6.14587738 0.2410148 8.578125 2.40234375 C9.78844931 3.88046971 10.90220903 5.43647953 12 7 C11.01 8.485 11.01 8.485 10 10 C8.948125 8.576875 8.948125 8.576875 7.875 7.125 C5.30396782 4.00145374 2.98260427 2.92618704 -1 2 C-0.67 1.34 -0.34 0.68 0 0 Z " fill="#A9837B" transform="translate(440,405)"/>
<path d="M0 0 C0.92619141 0.28230469 0.92619141 0.28230469 1.87109375 0.5703125 C1.34 0.94542969 0.80890625 1.32054687 0.26171875 1.70703125 C-3.81664353 4.66161123 -7.19082625 7.40803249 -10.12890625 11.5703125 C-10.78890625 11.2403125 -11.44890625 10.9103125 -12.12890625 10.5703125 C-11.69578125 10.1784375 -11.26265625 9.7865625 -10.81640625 9.3828125 C-9.00713168 7.57634625 -9.00713168 7.57634625 -7.69140625 5.0703125 C-5.72102711 1.91770588 -3.9822296 -0.80375276 0 0 Z " fill="#B8897C" transform="translate(310.12890625,507.4296875)"/>
<path d="M0 0 C5.97897503 -0.74737188 9.32379721 1.6768102 14 5 C12.328125 6.17578125 12.328125 6.17578125 10 7 C7.421875 5.91796875 7.421875 5.91796875 4.75 4.1875 C3.85796875 3.62417969 2.9659375 3.06085938 2.046875 2.48046875 C1.37140625 1.99191406 0.6959375 1.50335938 0 1 C0 0.67 0 0.34 0 0 Z " fill="#8E6D63" transform="translate(652,495)"/>
<path d="M0 0 C0 0.66 0 1.32 0 2 C-5.24882694 5.17692157 -10.01488629 5.65697965 -16 6 C-13.77304595 3.77304595 -12.032382 3.03967825 -9.125 1.875 C-8.26132812 1.52179688 -7.39765625 1.16859375 -6.5078125 0.8046875 C-4 0 -4 0 0 0 Z " fill="#C0998F" transform="translate(342,492)"/>
<path d="M0 0 C-1.43457328 0.9834496 -2.87277406 1.96160921 -4.3125 2.9375 C-5.11300781 3.48277344 -5.91351563 4.02804687 -6.73828125 4.58984375 C-9 6 -9 6 -12 7 C-12.33 6.01 -12.66 5.02 -13 4 C-11.59248779 3.13083113 -10.1735479 2.28014851 -8.75 1.4375 C-7.96109375 0.96183594 -7.1721875 0.48617188 -6.359375 -0.00390625 C-3.69155375 -1.13022151 -2.65498232 -1.0169313 0 0 Z " fill="#8D6F66" transform="translate(467,469)"/>
<path d="M0 0 C-2.28560647 1.5306999 -4.57762667 3.04965044 -6.875 4.5625 C-7.52597656 5.00013672 -8.17695313 5.43777344 -8.84765625 5.88867188 C-10.52625497 6.98754836 -12.26023387 8.0007818 -14 9 C-14.66 8.67 -15.32 8.34 -16 8 C-5.2250241 -1.59500736 -5.2250241 -1.59500736 0 0 Z " fill="#B6887C" transform="translate(286,366)"/>
<path d="M0 0 C5.97897503 -0.74737188 9.32379721 1.6768102 14 5 C12.328125 6.17578125 12.328125 6.17578125 10 7 C7.421875 5.91796875 7.421875 5.91796875 4.75 4.1875 C3.85796875 3.62417969 2.9659375 3.06085938 2.046875 2.48046875 C1.37140625 1.99191406 0.6959375 1.50335938 0 1 C0 0.67 0 0.34 0 0 Z " fill="#88665E" transform="translate(553,433)"/>
<path d="M0 0 C5.35048061 0.37328935 7.50912907 1.9957657 11 6 C10.67 6.66 10.34 7.32 10 8 C8.51478323 7.24088921 7.03696575 6.46728766 5.5625 5.6875 C4.73878906 5.25824219 3.91507813 4.82898438 3.06640625 4.38671875 C1 3 1 3 0 0 Z " fill="#96736C" transform="translate(534,420)"/>
<path d="M0 0 C3.23861303 1.44424635 5.61969163 3.25772247 8.25 5.625 C8.95640625 6.25664062 9.6628125 6.88828125 10.390625 7.5390625 C10.92171875 8.02117187 11.4528125 8.50328125 12 9 C11.67 9.66 11.34 10.32 11 11 C10.0409375 10.1646875 10.0409375 10.1646875 9.0625 9.3125 C5.25392938 6.43664055 1.2063424 4.2360513 -3 2 C-2.01 1.34 -1.02 0.68 0 0 Z " fill="#C09C93" transform="translate(440,148)"/>
<path d="M0 0 C0.66 0 1.32 0 2 0 C1.35550393 3.01217112 0.34977818 5.51655836 -1.0625 8.25 C-1.42472656 8.95640625 -1.78695313 9.6628125 -2.16015625 10.390625 C-2.43730469 10.92171875 -2.71445312 11.4528125 -3 12 C-3.66 12 -4.32 12 -5 12 C-4.52583422 7.02125936 -3.0900669 3.93281242 0 0 Z " fill="#A17B70" transform="translate(323,532)"/>
<path d="M0 0 C-3.42388092 3.82669043 -6.00724943 5.72278474 -11 7 C-11 5.68 -11 4.36 -11 3 C-7.38854512 0.02586069 -4.5894956 -0.32019737 0 0 Z " fill="#88675F" transform="translate(159,475)"/>
<path d="M0 0 C0.66 0.33 1.32 0.66 2 1 C-3.08952561 6.06245367 -6.85333259 8.85142845 -14 10 C-11.46357916 7.21423609 -8.59630744 5.28576938 -5.4375 3.25 C-4.46683594 2.61578125 -3.49617188 1.9815625 -2.49609375 1.328125 C-1.67238281 0.88984375 -0.84867187 0.4515625 0 0 Z " fill="#C2A096" transform="translate(272,371)"/>
<path d="M0 0 C3.62276315 1.3255581 6.63505348 2.94346955 9.8125 5.125 C10.60269531 5.66382813 11.39289063 6.20265625 12.20703125 6.7578125 C12.79871094 7.16773438 13.39039063 7.57765625 14 8 C11.52489914 8.90457722 10.40762047 9.16843185 7.9296875 8.14453125 C7.25164062 7.70496094 6.57359375 7.26539063 5.875 6.8125 C5.19179688 6.38582031 4.50859375 5.95914062 3.8046875 5.51953125 C1.81379415 3.84321629 0.99020762 2.38364413 0 0 Z " fill="#C0968D" transform="translate(479,355)"/>
<path d="M0 0 C5.63470383 -0.5497272 8.38987758 1.04952165 13 4 C11.3125 5.125 11.3125 5.125 9 6 C6.25 5.125 6.25 5.125 4 4 C4 3.34 4 2.68 4 2 C2.68 1.34 1.36 0.68 0 0 Z " fill="#92736B" transform="translate(411,346)"/>
<path d="M0 0 C-3.46741134 2.95749791 -6.86873527 5.07848152 -11 7 C-11 5.68 -11 4.36 -11 3 C-7.38854512 0.02586069 -4.5894956 -0.32019737 0 0 Z " fill="#896A62" transform="translate(127,495)"/>
<path d="M0 0 C5.29441695 -0.50423019 7.81413519 0.81076967 12 4 C11.67 4.99 11.34 5.98 11 7 C7.37 5.02 3.74 3.04 0 1 C0 0.67 0 0.34 0 0 Z " fill="#84655D" transform="translate(641,488)"/>
<path d="M0 0 C3.59905908 0.55550695 4.99909799 1.74887248 7.25 4.5625 C7.77078125 5.20316406 8.2915625 5.84382813 8.828125 6.50390625 C9.21484375 6.99761719 9.6015625 7.49132812 10 8 C4.96014269 7.55530671 2.62365012 5.28656638 -1 2 C-0.67 1.34 -0.34 0.68 0 0 Z " fill="#B38C7F" transform="translate(331,484)"/>
<path d="M0 0 C-3.46741134 2.95749791 -6.86873527 5.07848152 -11 7 C-11 5.68 -11 4.36 -11 3 C-7.38854512 0.02586069 -4.5894956 -0.32019737 0 0 Z " fill="#84655D" transform="translate(175,465)"/>
<path d="M0 0 C0.66 0.33 1.32 0.66 2 1 C-4.03076923 5.92307692 -4.03076923 5.92307692 -8.9375 6.3125 C-9.948125 6.209375 -10.95875 6.10625 -12 6 C-12.33 5.01 -12.66 4.02 -13 3 C-9.56484998 2.37542727 -6.50935186 2 -3 2 C-2.01 1.34 -1.02 0.68 0 0 Z " fill="#C09E97" transform="translate(323,342)"/>
<path d="M0 0 C6.97433366 2.0148075 6.97433366 2.0148075 9 5 C9.6875 8.1875 9.6875 8.1875 10 11 C6.40365256 7.50640535 3.16548033 3.88901869 0 0 Z " fill="#94736C" transform="translate(426,172)"/>
<path d="M0 0 C1.32 0.66 2.64 1.32 4 2 C1.36 4.31 -1.28 6.62 -4 9 C-4.66 8.67 -5.32 8.34 -6 8 C-4.55746343 4.63408134 -2.66735273 2.48952921 0 0 Z " fill="#86645B" transform="translate(50,541)"/>
<path d="M0 0 C-2.9905167 3.33557632 -5.93184627 5.15083921 -10 7 C-10 5.68 -10 4.36 -10 3 C-6.66954606 0.33563684 -4.2225435 -0.3619323 0 0 Z " fill="#907067" transform="translate(77,526)"/>
<path d="M0 0 C-2.9905167 3.33557632 -5.93184627 5.15083921 -10 7 C-10 5.68 -10 4.36 -10 3 C-6.66954606 0.33563684 -4.2225435 -0.3619323 0 0 Z " fill="#906C64" transform="translate(147,482)"/>
<path d="M0 0 C1.48831242 0.00667405 2.97660807 0.01863442 4.46484375 0.03515625 C5.22345703 0.03966797 5.98207031 0.04417969 6.76367188 0.04882812 C8.64326246 0.06064945 10.52281274 0.07858547 12.40234375 0.09765625 C12.40234375 0.42765625 12.40234375 0.75765625 12.40234375 1.09765625 C7.45234375 1.42765625 2.50234375 1.75765625 -2.59765625 2.09765625 C-2.92765625 4.40765625 -3.25765625 6.71765625 -3.59765625 9.09765625 C-4.25765625 8.43765625 -4.91765625 7.77765625 -5.59765625 7.09765625 C-4.88694165 0.13265314 -4.88694165 0.13265314 0 0 Z " fill="#CEB2A6" transform="translate(418.59765625,460.90234375)"/>
<path d="M0 0 C-3 2 -3 2 -6 2 C-6.33 2.66 -6.66 3.32 -7 4 C-9.5625 4.625 -9.5625 4.625 -12 5 C-11.8125 3.125 -11.8125 3.125 -11 1 C-7.11220387 -1.33267768 -4.31933651 -1.00449686 0 0 Z " fill="#896C66" transform="translate(401,404)"/>
<path d="M0 0 C5.29441695 -0.50423019 7.81413519 0.81076967 12 4 C11.67 4.99 11.34 5.98 11 7 C7.37 5.02 3.74 3.04 0 1 C0 0.67 0 0.34 0 0 Z " fill="#926E67" transform="translate(437,361)"/>
<path d="M0 0 C0.33 0.66 0.66 1.32 1 2 C0.34 2 -0.32 2 -1 2 C-1 2.66 -1 3.32 -1 4 C-4.3 3.67 -7.6 3.34 -11 3 C-3.71428571 -1.85714286 -3.71428571 -1.85714286 0 0 Z " fill="#8E6960" transform="translate(733,637)"/>
<path d="M0 0 C1.02956962 3.19823755 0.94507949 5.36577313 0.1875 8.625 C0.01605469 9.40101563 -0.15539062 10.17703125 -0.33203125 10.9765625 C-1 13 -1 13 -3 15 C-3.66 15 -4.32 15 -5 15 C-3.33333333 10 -1.66666667 5 0 0 Z " fill="#A47A6D" transform="translate(770,592)"/>
<path d="M0 0 C0.66 0.99 1.32 1.98 2 3 C1.24172908 4.17487036 0.46792245 5.33972592 -0.3125 6.5 C-0.74175781 7.1496875 -1.17101562 7.799375 -1.61328125 8.46875 C-2.07089844 8.9740625 -2.52851563 9.479375 -3 10 C-3.99 10 -4.98 10 -6 10 C-4.34832443 6.4213696 -2.21713508 3.25179812 0 0 Z " fill="#987269" transform="translate(477,452)"/>
<path d="M0 0 C1.32 0.66 2.64 1.32 4 2 C1.03 3.65 -1.94 5.3 -5 7 C-5.99 6.34 -6.98 5.68 -8 5 C-6.7636832 4.10577086 -5.51028438 3.23512109 -4.25 2.375 C-3.55390625 1.88773437 -2.8578125 1.40046875 -2.140625 0.8984375 C-1.43421875 0.60195313 -0.7278125 0.30546875 0 0 Z " fill="#88675D" transform="translate(107,504)"/>
<path d="M0 0 C1.33897583 0.95043374 2.67105427 1.91059147 4 2.875 C5.11375 3.67550781 5.11375 3.67550781 6.25 4.4921875 C6.8275 4.98976563 7.405 5.48734375 8 6 C8 6.66 8 7.32 8 8 C7.01 8.33 6.02 8.66 5 9 C3.02 6.69 1.04 4.38 -1 2 C-0.67 1.34 -0.34 0.68 0 0 Z " fill="#A0786F" transform="translate(327,274)"/>
<path d="M0 0 C-3.88309282 3.64775386 -6.71201818 4.58525633 -12 5 C-8.12275678 0.93812615 -5.66451219 -0.2517561 0 0 Z " fill="#906E65" transform="translate(430,628)"/>
<path d="M0 0 C3.68754757 0.49831724 5.60490662 1.10067643 8 4 C7.67 4.99 7.34 5.98 7 7 C1.125 3.375 1.125 3.375 0 0 Z " fill="#97776E" transform="translate(26,625)"/>
<path d="M0 0 C1.33333333 0.66666667 2.66666667 1.33333333 4 2 C4.70125 2.268125 5.4025 2.53625 6.125 2.8125 C8.67232367 4.42580499 9.1119086 6.18771058 10 9 C8.51245994 8.26674793 7.03513808 7.51273922 5.5625 6.75 C4.73878906 6.33234375 3.91507812 5.9146875 3.06640625 5.484375 C1 4 1 4 0.21484375 1.828125 C0.14394531 1.22484375 0.07304687 0.6215625 0 0 Z " fill="#8F6D64" transform="translate(498,396)"/>
<path d="M0 0 C-2.75170751 2.9555377 -5.41970299 5.11563315 -9 7 C-9.66 7 -10.32 7 -11 7 C-11 6.34 -11 5.68 -11 5 C-5.11138162 -0.75167377 -5.11138162 -0.75167377 0 0 Z " fill="#846B65" transform="translate(746,631)"/>
<path d="M0 0 C-0.125 1.75 -0.125 1.75 -1 4 C-4.0625 6.25 -4.0625 6.25 -7 8 C-7 6.68 -7 5.36 -7 4 C-2.77777778 0 -2.77777778 0 0 0 Z " fill="#937167" transform="translate(437,620)"/>
<path d="M0 0 C1.75570313 0.02707031 1.75570313 0.02707031 3.546875 0.0546875 C4.88492187 0.08949219 4.88492187 0.08949219 6.25 0.125 C6.25 0.455 6.25 0.785 6.25 1.125 C2.95 1.455 -0.35 1.785 -3.75 2.125 C-3.75 2.455 -3.75 2.785 -3.75 3.125 C-6.39 3.785 -9.03 4.445 -11.75 5.125 C-10.75 2.125 -10.75 2.125 -9.109375 0.9453125 C-5.98729076 -0.14018037 -3.29724599 -0.06594492 0 0 Z " fill="#D0B6AB" transform="translate(440.75,547.875)"/>
<path d="M0 0 C0.66 0.33 1.32 0.66 2 1 C2 1.99 2 2.98 2 4 C0.02 4.99 -1.96 5.98 -4 7 C-4 6.34 -4 5.68 -4 5 C-4.66 4.67 -5.32 4.34 -6 4 C-4.02 2.68 -2.04 1.36 0 0 Z " fill="#BE988F" transform="translate(66,500)"/>
<path d="M0 0 C0.66 0.33 1.32 0.66 2 1 C2 1.66 2 2.32 2 3 C3.175625 3.185625 3.175625 3.185625 4.375 3.375 C7 4 7 4 9 6 C6.875 6.75 6.875 6.75 4 7 C0.6875 5.0625 0.6875 5.0625 -2 3 C-1 1 -1 1 0 0 Z " fill="#916B63" transform="translate(417,470)"/>
<path d="M0 0 C0.33 0 0.66 0 1 0 C1.36463732 1.74784829 1.7163078 3.49840502 2.0625 5.25 C2.25972656 6.22453125 2.45695312 7.1990625 2.66015625 8.203125 C2.98397535 10.868119 2.85503199 12.48871723 2 15 C1.34 14.67 0.68 14.34 0 14 C0 9.38 0 4.76 0 0 Z " fill="#B58579" transform="translate(323,454)"/>
<path d="M0 0 C0.66 0.33 1.32 0.66 2 1 C-1.49087093 5.0042343 -3.64951939 6.62671065 -9 7 C-6.25604436 4.05278838 -3.61662784 1.80831392 0 0 Z " fill="#BE978D" transform="translate(189,423)"/>
<path d="M0 0 C1.32 0.66 2.64 1.32 4 2 C-0.95 4.475 -0.95 4.475 -6 7 C-5 3 -5 3 -2.6875 1.125 C-1.800625 0.75375 -0.91375 0.3825 0 0 Z " fill="#87685E" transform="translate(293,388)"/>
<path d="M0 0 C2.9375 0.75 2.9375 0.75 6 2 C6.875 4.125 6.875 4.125 7 6 C3.17902761 5.46930939 0.93828597 4.50298434 -2 2 C-1.34 1.34 -0.68 0.68 0 0 Z " fill="#836760" transform="translate(351,291)"/>
<path d="M0 0 C2.83374881 3.20336822 3.5205537 5.78087253 4 10 C3.01 10.495 3.01 10.495 2 11 C-1.07692308 5.70769231 -1.07692308 5.70769231 -0.6875 2.125 C-0.460625 1.42375 -0.23375 0.7225 0 0 Z " fill="#A3796F" transform="translate(282,604)"/>
<path d="M0 0 C2.57075841 3.01447835 3.52207066 5.35979771 4.1875 9.25 C4.34605469 10.14203125 4.50460937 11.0340625 4.66796875 11.953125 C4.83232422 12.96632813 4.83232422 12.96632813 5 14 C4.34 14 3.68 14 3 14 C1.23384882 9.29026351 0.51405169 4.96916636 0 0 Z " fill="#C49B90" transform="translate(767,549)"/>
<path d="M0 0 C1.98 0.99 1.98 0.99 4 2 C4.1875 4.8125 4.1875 4.8125 4 8 C3.01 8.99 2.02 9.98 1 11 C0.67 7.37 0.34 3.74 0 0 Z " fill="#C3998F" transform="translate(397,493)"/>
<path d="M0 0 C5.41538462 -0.36923077 5.41538462 -0.36923077 8.375 1.5 C8.91125 1.995 9.4475 2.49 10 3 C9.67 3.99 9.34 4.98 9 6 C6.03 4.35 3.06 2.7 0 1 C0 0.67 0 0.34 0 0 Z " fill="#8F6C64" transform="translate(598,461)"/>
<path d="M0 0 C2.3125 0.8125 2.3125 0.8125 4 2 C1.37801226 4.15377564 -0.64404172 5.40072174 -4 6 C-4.33 5.01 -4.66 4.02 -5 3 C-2.75 1.375 -2.75 1.375 0 0 Z " fill="#866760" transform="translate(203,444)"/>
<path d="M0 0 C0.33 0 0.66 0 1 0 C2.34495828 7.09705662 3.24091535 13.7725395 3 21 C2.67 21 2.34 21 2 21 C1.86722656 20.08476562 1.73445313 19.16953125 1.59765625 18.2265625 C1.42105469 17.03804687 1.24445313 15.84953125 1.0625 14.625 C0.88847656 13.44164062 0.71445312 12.25828125 0.53515625 11.0390625 C0.16537214 8.09297619 0.16537214 8.09297619 -1 6 C-0.71887936 3.99199544 -0.38932033 1.98985949 0 0 Z " fill="#CBAEA6" transform="translate(471,192)"/>
<path d="M0 0 C-2.51830747 3.12270126 -3.7261549 3.94523098 -7.75 4.75 C-9.35875 4.87375 -9.35875 4.87375 -11 5 C-7.17906575 1.05170128 -5.52310605 -0.1453449 0 0 Z " fill="#88665D" transform="translate(136,489)"/>
<path d="M0 0 C1.40907283 2.81814566 0.50872691 4.17277204 -0.4375 7.125 C-0.72496094 8.03507812 -1.01242187 8.94515625 -1.30859375 9.8828125 C-1.53675781 10.58148438 -1.76492188 11.28015625 -2 12 C-2.66 12 -3.32 12 -4 12 C-4.33 12.66 -4.66 13.32 -5 14 C-4.03603575 8.79459302 -3.12319499 4.40086567 0 0 Z " fill="#C5A39A" transform="translate(329,426)"/>
<path d="M0 0 C3.94876098 0.56410871 6.75634176 1.65735794 10 4 C10.33 4.99 10.66 5.98 11 7 C6.89188572 5.55007731 3.53144334 3.54592427 0 1 C0 0.67 0 0.34 0 0 Z " fill="#B78A7E" transform="translate(515,379)"/>
<path d="M0 0 C-0.33 0.66 -0.66 1.32 -1 2 C-8.3625 3.425 -8.3625 3.425 -12 1 C-8.0186217 -0.3271261 -4.14954773 -0.06915913 0 0 Z " fill="#886A62" transform="translate(64,640)"/>
<path d="M0 0 C0.66 0 1.32 0 2 0 C3.32421875 1.390625 3.32421875 1.390625 4.6875 3.25 C5.14511719 3.85328125 5.60273437 4.4565625 6.07421875 5.078125 C7 7 7 7 6.64453125 9.234375 C6.43183594 9.81703125 6.21914063 10.3996875 6 11 C4 9.1875 4 9.1875 2 7 C2 6.01 2 5.02 2 4 C1.05021103 1.84971696 1.05021103 1.84971696 0 0 Z " fill="#A3766A" transform="translate(736,548)"/>
<path d="M0 0 C0.99 0.33 1.98 0.66 3 1 C2.34 3.31 1.68 5.62 1 8 C0.34 8 -0.32 8 -1 8 C-1.33 8.99 -1.66 9.98 -2 11 C-1.125 3.375 -1.125 3.375 0 0 Z " fill="#A2786E" transform="translate(315,547)"/>
<path d="M0 0 C3.37503669 1.1858237 5.64722731 2.27573689 8 5 C5 6 5 6 3.17578125 5.22265625 C1.45052083 4.1484375 -0.27473958 3.07421875 -2 2 C-1.34 1.34 -0.68 0.68 0 0 Z " fill="#8F6D64" transform="translate(675,507)"/>
<path d="M0 0 C3.37503669 1.1858237 5.64722731 2.27573689 8 5 C5 6 5 6 3.17578125 5.22265625 C1.45052083 4.1484375 -0.27473958 3.07421875 -2 2 C-1.34 1.34 -0.68 0.68 0 0 Z " fill="#8E6C64" transform="translate(547,427)"/>
<path d="M0 0 C-3.07999946 3.67230705 -5.2482602 4.56802365 -10 5 C-10 4.34 -10 3.68 -10 3 C-6.58168085 0.4606772 -4.24223102 -0.3636198 0 0 Z " fill="#906C63" transform="translate(248,419)"/>
<path d="M0 0 C1.32 0.33 2.64 0.66 4 1 C1.69 3.31 -0.62 5.62 -3 8 C-3.33 7.01 -3.66 6.02 -4 5 C-2.0625 2.3125 -2.0625 2.3125 0 0 Z " fill="#BA897D" transform="translate(342,409)"/>
<path d="M0 0 C-1.98 0.99 -1.98 0.99 -4 2 C-4 2.66 -4 3.32 -4 4 C-5.32 4.33 -6.64 4.66 -8 5 C-8 3.68 -8 2.36 -8 1 C-2.25 -1.125 -2.25 -1.125 0 0 Z " fill="#947871" transform="translate(326,371)"/>
<path d="M0 0 C1.32 0.66 2.64 1.32 4 2 C0.04 3.98 0.04 3.98 -4 6 C-4.33 5.01 -4.66 4.02 -5 3 C-2.75 1.375 -2.75 1.375 0 0 Z " fill="#806058" transform="translate(341,358)"/>
<path d="M0 0 C5.35048061 0.37328935 7.50912907 1.9957657 11 6 C7.61121488 6 6.60242783 5.35638802 3.8125 3.5625 C2.73935547 2.88380859 2.73935547 2.88380859 1.64453125 2.19140625 C1.10183594 1.79824219 0.55914062 1.40507812 0 1 C0 0.67 0 0.34 0 0 Z " fill="#BA867A" transform="translate(470,351)"/>
<path d="M0 0 C1.32 0.33 2.64 0.66 4 1 C2.50260417 2.20442708 1.00520833 3.40885417 -0.4921875 4.61328125 C-2.25292107 6.12270545 -2.25292107 6.12270545 -4 9 C-4.99 8.67 -5.98 8.34 -7 8 C-4.69 5.36 -2.38 2.72 0 0 Z " fill="#B28376" transform="translate(337,147)"/>
<path d="M0 0 C0.6875 1.6875 0.6875 1.6875 1 4 C-0.25 6.6875 -0.25 6.6875 -2 9 C-2.99 9.33 -3.98 9.66 -5 10 C-3.84414715 6.08788267 -2.64465038 3.1254959 0 0 Z " fill="#C2988C" transform="translate(18,539)"/>
<path d="M0 0 C3.3 0 6.6 0 10 0 C9.67 0.99 9.34 1.98 9 3 C6.1875 3.1875 6.1875 3.1875 3 3 C2.01 2.01 1.02 1.02 0 0 Z " fill="#9F7970" transform="translate(360,503)"/>
<path d="M0 0 C4.95 0.33 9.9 0.66 15 1 C15 1.33 15 1.66 15 2 C7.08 2.495 7.08 2.495 -1 3 C-0.67 2.01 -0.34 1.02 0 0 Z " fill="#9E7166" transform="translate(427,476)"/>
<path d="M0 0 C3.3 0 6.6 0 10 0 C6.32326162 1.83836919 2.95007553 2.93651813 -1 4 C-0.67 2.68 -0.34 1.36 0 0 Z " fill="#755C57" transform="translate(369,342)"/>
<path d="M0 0 C1.48199902 0.44909061 2.96055236 0.90956564 4.4375 1.375 C5.26121094 1.63023437 6.08492188 1.88546875 6.93359375 2.1484375 C9 3 9 3 10 5 C3.49955237 4.38675022 3.49955237 4.38675022 1.0625 2.5 C0 1 0 1 0 0 Z " fill="#C09990" transform="translate(418,319)"/>
<path d="M0 0 C0.66 0.33 1.32 0.66 2 1 C-0.97 4.96 -0.97 4.96 -4 9 C-4.66 8.67 -5.32 8.34 -6 8 C-4.73058503 4.08597051 -3.48832306 2.20927127 0 0 Z " fill="#C19A8F" transform="translate(474,618)"/>
<path d="M0 0 C1.31611677 0.95336021 2.62778961 1.91285774 3.9375 2.875 C4.66839844 3.40867187 5.39929687 3.94234375 6.15234375 4.4921875 C8 6 8 6 9 8 C8.01 8.33 7.02 8.66 6 9 C2.81227007 6.87484671 1.75079247 5.33484279 0 2 C0 1.34 0 0.68 0 0 Z " fill="#C09E93" transform="translate(43,603)"/>
<path d="M0 0 C0.89332031 0.12761719 1.78664063 0.25523437 2.70703125 0.38671875 C3.60808594 0.50660156 4.50914062 0.62648438 5.4375 0.75 C6.12457031 0.85699219 6.81164062 0.96398437 7.51953125 1.07421875 C7.51953125 1.40421875 7.51953125 1.73421875 7.51953125 2.07421875 C3.11038342 3.17650571 -0.96429276 3.15076411 -5.48046875 3.07421875 C-3.68981165 0.76004728 -2.99175075 0.08951695 0 0 Z " fill="#7A5C55" transform="translate(353.48046875,504.92578125)"/>
<path d="M0 0 C-1.6210103 0.69685498 -3.24696066 1.38222861 -4.875 2.0625 C-5.77992188 2.44535156 -6.68484375 2.82820313 -7.6171875 3.22265625 C-10 4 -10 4 -12 3 C-10.10827237 0.58279247 -9.04144125 0.01036031 -6 -0.75 C-3 -1 -3 -1 0 0 Z " fill="#B68679" transform="translate(332,498)"/>
<path d="M0 0 C-2.12780579 2.34058637 -4.11562221 3.70700306 -7 5 C-7.99 4.34 -8.98 3.68 -10 3 C-6.48812804 0.59185923 -4.27343092 -0.36629408 0 0 Z " fill="#8B6B63" transform="translate(192,454)"/>
<path d="M0 0 C5.625 -0.25 5.625 -0.25 9 2 C8.67 2.99 8.34 3.98 8 5 C5.36 3.68 2.72 2.36 0 1 C0 0.67 0 0.34 0 0 Z " fill="#85675F" transform="translate(471,382)"/>
<path d="M0 0 C5.625 -0.25 5.625 -0.25 9 2 C8.67 2.99 8.34 3.98 8 5 C5.36 3.68 2.72 2.36 0 1 C0 0.67 0 0.34 0 0 Z " fill="#84655D" transform="translate(422,352)"/>
<path d="M0 0 C4.875 1.75 4.875 1.75 6 4 C5.75 7.5 5.75 7.5 5 11 C4.01 11.66 3.02 12.32 2 13 C2.3403125 11.1746875 2.3403125 11.1746875 2.6875 9.3125 C3.11976343 6.02379309 3.06063153 5.12653537 1.5625 2 C1.046875 1.34 0.53125 0.68 0 0 Z " fill="#CFB0A7" transform="translate(372,301)"/>
<path d="M0 0 C5.41538462 -0.36923077 5.41538462 -0.36923077 8.375 1.5 C8.91125 1.995 9.4475 2.49 10 3 C7.8125 3.75 7.8125 3.75 5 4 C2.1875 2.0625 2.1875 2.0625 0 0 Z " fill="#81655D" transform="translate(33,632)"/>
<path d="M0 0 C0.66 0.99 1.32 1.98 2 3 C-0.6855594 5.6855594 -3.37621328 6.06049974 -7 7 C-6.34 6.01 -5.68 5.02 -5 4 C-4.34 4 -3.68 4 -3 4 C-3 3.34 -3 2.68 -3 2 C-2.01 1.34 -1.02 0.68 0 0 Z " fill="#C09D93" transform="translate(425,604)"/>
<path d="M0 0 C0.66 1.32 1.32 2.64 2 4 C-2.75 8.875 -2.75 8.875 -5 10 C-3.33333333 6.66666667 -1.66666667 3.33333333 0 0 Z " fill="#C69A90" transform="translate(434,590)"/>
<path d="M0 0 C3.91211733 1.15585285 6.8745041 2.35534962 10 5 C9.67 5.66 9.34 6.32 9 7 C7.68176698 6.40844669 6.37052949 5.80128537 5.0625 5.1875 C4.33160156 4.85105469 3.60070312 4.51460937 2.84765625 4.16796875 C1 3 1 3 0 0 Z " fill="#C3A096" transform="translate(448,549)"/>
<path d="M0 0 C5.625 -0.25 5.625 -0.25 9 2 C8.67 2.99 8.34 3.98 8 5 C5.36 3.68 2.72 2.36 0 1 C0 0.67 0 0.34 0 0 Z " fill="#8C6861" transform="translate(628,480)"/>
<path d="M0 0 C-0.66 0 -1.32 0 -2 0 C-2 0.66 -2 1.32 -2 2 C-4.8125 3.125 -4.8125 3.125 -8 4 C-8.99 3.34 -9.98 2.68 -11 2 C-9.73392393 1.46770674 -8.46189588 0.94955456 -7.1875 0.4375 C-6.47980469 0.14746094 -5.77210938 -0.14257812 -5.04296875 -0.44140625 C-3 -1 -3 -1 0 0 Z " fill="#C19A90" transform="translate(368,317)"/>
<path d="M0 0 C-2.62198774 2.15377564 -4.64404172 3.40072174 -8 4 C-7.625 2.0625 -7.625 2.0625 -7 0 C-4.3333581 -1.33332095 -2.83319697 -0.67102033 0 0 Z " fill="#755B54" transform="translate(422,633)"/>
<path d="M0 0 C3.6 5.4 3.6 5.4 5 8 C4.67 8.66 4.34 9.32 4 10 C1.47411298 7.63707344 0.11179163 6.33537489 -1 3 C-0.67 2.01 -0.34 1.02 0 0 Z " fill="#C2968B" transform="translate(36,591)"/>
<path d="M0 0 C0.33 0 0.66 0 1 0 C2.42857143 8.42857143 2.42857143 8.42857143 0 13 C-0.33 13 -0.66 13 -1 13 C-0.67 8.71 -0.34 4.42 0 0 Z " fill="#C39B90" transform="translate(746,580)"/>
<path d="M0 0 C0 4.38968456 -2.12805101 5.76905739 -5 9 C-5.33 7.68 -5.66 6.36 -6 5 C-4.02 3.35 -2.04 1.7 0 0 Z " fill="#B48679" transform="translate(25,532)"/>
<path d="M0 0 C4.10958767 1.45044271 7.43258745 3.51110752 11 6 C10.01 6.495 10.01 6.495 9 7 C7.08984375 6.328125 7.08984375 6.328125 4.9375 5.25 C4.22464844 4.90453125 3.51179687 4.5590625 2.77734375 4.203125 C1 3 1 3 0 0 Z " fill="#C6A399" transform="translate(598,429)"/>
<path d="M0 0 C0.33 1.32 0.66 2.64 1 4 C-0.65 5.32 -2.3 6.64 -4 8 C-3.50168276 4.31245243 -2.89932357 2.39509338 0 0 Z " fill="#A58171" transform="translate(367,422)"/>
<path d="M0 0 C3.375 0.25 3.375 0.25 7 1 C8.4375 3.0625 8.4375 3.0625 9 5 C5.22454612 3.90931332 2.52956528 3.0916909 0 0 Z " fill="#B88A7D" transform="translate(380,275)"/>
<path d="M0 0 C1.875 0.125 1.875 0.125 4 1 C5.25 4.0625 5.25 4.0625 6 7 C3.00675737 5.9024777 2.15389099 5.32317108 0.75 2.375 C0.5025 1.59125 0.255 0.8075 0 0 Z " fill="#A47D73" transform="translate(10,603)"/>
<path d="M0 0 C0 0.99 0 1.98 0 3 C-2.95664519 4.4783226 -5.74229737 4.06032783 -9 4 C-3 0 -3 0 0 0 Z " fill="#C39C91" transform="translate(440,457)"/>
<path d="M0 0 C2.3125 0.8125 2.3125 0.8125 4 2 C2.02 2.99 0.04 3.98 -2 5 C-2.99 4.34 -3.98 3.68 -5 3 C-2.75 1.375 -2.75 1.375 0 0 Z " fill="#8A685E" transform="translate(256,411)"/>
<path d="M0 0 C2 1 2 1 3 3 C1.02 3.99 -0.96 4.98 -3 6 C-3 4.68 -3 3.36 -3 2 C-2.01 1.34 -1.02 0.68 0 0 Z " fill="#8A675F" transform="translate(310,377)"/>
<path d="M0 0 C0.66 0.33 1.32 0.66 2 1 C0.35 2.65 -1.3 4.3 -3 6 C-3.99 5.34 -4.98 4.68 -6 4 C-4.02 2.68 -2.04 1.36 0 0 Z " fill="#C29E94" transform="translate(306,350)"/>
<path d="M0 0 C0.66 0.99 1.32 1.98 2 3 C0.35 4.65 -1.3 6.3 -3 8 C-2.25 2.25 -2.25 2.25 0 0 Z " fill="#957369" transform="translate(452,602)"/>
<path d="M0 0 C1.5625 1.5625 1.5625 1.5625 3 4 C2.6875 7.75 2.6875 7.75 2 11 C-0.14208427 7.7868736 -0.59687808 5.78934603 -1 2 C-0.67 1.34 -0.34 0.68 0 0 Z " fill="#CB9D94" transform="translate(7,586)"/>
<path d="M0 0 C2 4 2 4 1.125 6.75 C0.75375 7.4925 0.3825 8.235 0 9 C-0.66 9 -1.32 9 -2 9 C-1.34 6.03 -0.68 3.06 0 0 Z " fill="#A3786D" transform="translate(461,581)"/>
<path d="M0 0 C-1.65 1.32 -3.3 2.64 -5 4 C-6.32 3.34 -7.64 2.68 -9 2 C-5.5647952 -0.29013653 -4.014669 -0.17842973 0 0 Z " fill="#81625B" transform="translate(305,384)"/>
<path d="M0 0 C3.37503669 1.1858237 5.64722731 2.27573689 8 5 C7.01 5.33 6.02 5.66 5 6 C3.31237149 4.3545622 1.6459651 2.68711423 0 1 C0 0.67 0 0.34 0 0 Z " fill="#BE968D" transform="translate(464,346)"/>
<path d="M0 0 C1.32 1.32 2.64 2.64 4 4 C3.67 4.66 3.34 5.32 3 6 C2.01 5.67 1.02 5.34 0 5 C0 4.34 0 3.68 0 3 C-0.99 3 -1.98 3 -3 3 C-3 2.34 -3 1.68 -3 1 C-2.01 0.67 -1.02 0.34 0 0 Z " fill="#987067" transform="translate(317,262)"/>
<path d="M0 0 C0.78375 0.04125 1.5675 0.0825 2.375 0.125 C0.725 1.775 -0.925 3.425 -2.625 5.125 C-3.285 4.135 -3.945 3.145 -4.625 2.125 C-2.625 0.125 -2.625 0.125 0 0 Z " fill="#8A6B63" transform="translate(57.625,536.875)"/>
<path d="M0 0 C2 0.66666667 4 1.33333333 6 2 C5.67 3.32 5.34 4.64 5 6 C2.5 4.6875 2.5 4.6875 0 3 C0 2.01 0 1.02 0 0 Z " fill="#876962" transform="translate(704,525)"/>
<path d="M0 0 C0.66 0.33 1.32 0.66 2 1 C0.25 3.0625 0.25 3.0625 -2 5 C-4.25 4.75 -4.25 4.75 -6 4 C-4.02 2.68 -2.04 1.36 0 0 Z " fill="#C09A8E" transform="translate(90,485)"/>
<path d="M0 0 C0.66 0.33 1.32 0.66 2 1 C0.25 3.0625 0.25 3.0625 -2 5 C-4.25 4.75 -4.25 4.75 -6 4 C-4.02 2.68 -2.04 1.36 0 0 Z " fill="#BE978C" transform="translate(98,480)"/>
<path d="M0 0 C0.66 0.33 1.32 0.66 2 1 C0.25 3.0625 0.25 3.0625 -2 5 C-4.25 4.75 -4.25 4.75 -6 4 C-4.02 2.68 -2.04 1.36 0 0 Z " fill="#BE998E" transform="translate(111,472)"/>
<path d="M0 0 C-2.05233685 2.2477975 -3.00667261 3.0022242 -6 4 C-6.33 3.01 -6.66 2.02 -7 1 C-3.375 -1.125 -3.375 -1.125 0 0 Z " fill="#A27C72" transform="translate(461,472)"/>
<path d="M0 0 C5.53846154 -0.36923077 5.53846154 -0.36923077 7.875 1.5 C8.24625 1.995 8.6175 2.49 9 3 C2.25 2.25 2.25 2.25 0 0 Z " fill="#947363" transform="translate(553,433)"/>
<path d="M0 0 C2.31 0.33 4.62 0.66 7 1 C7 1.99 7 2.98 7 4 C4.36 3.34 1.72 2.68 -1 2 C-0.67 1.34 -0.34 0.68 0 0 Z " fill="#8B6C66" transform="translate(440,405)"/>
<path d="M0 0 C0.66 0.33 1.32 0.66 2 1 C2 1.66 2 2.32 2 3 C-1 5 -1 5 -3.1875 4.625 C-3.785625 4.41875 -4.38375 4.2125 -5 4 C-3.35 2.68 -1.7 1.36 0 0 Z " fill="#C0988D" transform="translate(354,400)"/>
<path d="M0 0 C2.25 0.25 2.25 0.25 4 1 C2.02 2.32 0.04 3.64 -2 5 C-2.66 4.67 -3.32 4.34 -4 4 C-2.25 1.9375 -2.25 1.9375 0 0 Z " fill="#B6867B" transform="translate(226,400)"/>
<path d="M0 0 C2.475 0.495 2.475 0.495 5 1 C5 1.66 5 2.32 5 3 C5.99 3.33 6.98 3.66 8 4 C6 5 6 5 3.4375 4.25 C1 3 1 3 0 0 Z " fill="#CB9D91" transform="translate(456,392)"/>
<path d="M0 0 C1.32 0.66 2.64 1.32 4 2 C3.67 2.99 3.34 3.98 3 5 C1.02 4.01 -0.96 3.02 -3 2 C-2.01 1.34 -1.02 0.68 0 0 Z " fill="#87675F" transform="translate(434,356)"/>
<path d="M0 0 C1.32 0.66 2.64 1.32 4 2 C1 4 1 4 -1.6875 3.625 C-2.450625 3.41875 -3.21375 3.2125 -4 3 C-2.68 2.01 -1.36 1.02 0 0 Z " fill="#896961" transform="translate(367,160)"/>
<path d="M0 0 C2.31 0 4.62 0 7 0 C7 0.33 7 0.66 7 1 C4.69 1 2.38 1 0 1 C0 0.67 0 0.34 0 0 Z " fill="#EBEBEB" transform="translate(275,613)"/>
<path d="M0 0 C0.33 1.32 0.66 2.64 1 4 C0.34 3.01 -0.32 2.02 -1 1 C-0.67 0.67 -0.34 0.34 0 0 Z " fill="#EAEAEA" transform="translate(744,573)"/>
<path d="M0 0 C0 3 0 3 0 3 Z " fill="#EEC2C2" transform="translate(279,605)"/>
<path d="M0 0 C4 1 4 1 4 1 Z " fill="#A4A4A4" transform="translate(375,129)"/>
<path d="" fill="#A8A8A8" transform="translate(0,0)"/>
<path d="" fill="#FCA8A8" transform="translate(0,0)"/>
<path d="M0 0 C3 1 3 1 3 1 Z " fill="#F7CDCD" transform="translate(443,385)"/>
<path d="M0 0 C0.66 0 1.32 0 2 0 C1.67 0.66 1.34 1.32 1 2 C0.67 1.34 0.34 0.68 0 0 Z " fill="#F9D0D0" transform="translate(454,374)"/>
<path d="" fill="#FCA8A8" transform="translate(0,0)"/>
<path d="M0 0 C2 1 2 1 2 1 Z " fill="#F7F7F7" transform="translate(60,644)"/>
<path d="M0 0 C2 1 2 1 2 1 Z " fill="#CECECE" transform="translate(340,617)"/>
<path d="M0 0 C2 1 2 1 2 1 Z " fill="#F7F7F7" transform="translate(703,613)"/>
<path d="M0 0 C2 1 2 1 2 1 Z " fill="#CECECE" transform="translate(266,613)"/>
<path d="M0 0 C2 1 2 1 2 1 Z " fill="#CECECE" transform="translate(66,613)"/>
<path d="M0 0 C2 1 2 1 2 1 Z " fill="#F7F7F7" transform="translate(52,609)"/>
<path d="" fill="#B1B192" transform="translate(0,0)"/>
<path d="" fill="#D09292" transform="translate(0,0)"/>
<path d="" fill="#FBBDBD" transform="translate(0,0)"/>
<path d="" fill="#FBFBFB" transform="translate(0,0)"/>
<path d="" fill="#D0D0D0" transform="translate(0,0)"/>
<path d="M0 0 C2 1 2 1 2 1 Z " fill="#F7F7F7" transform="translate(532,385)"/>
<path d="M0 0 C2 1 2 1 2 1 Z " fill="#B9B9B9" transform="translate(246,385)"/>
<path d="M0 0 C2 1 2 1 2 1 Z " fill="#F7B9B9" transform="translate(342,321)"/>
<path d="" fill="#D2D2D2" transform="translate(0,0)"/>
<path d="" fill="#FBFBFB" transform="translate(0,0)"/>
<path d="" fill="#D09292" transform="translate(0,0)"/>
<path d="" fill="#F77B7B" transform="translate(0,0)"/>
<path d="" fill="#F7F7F7" transform="translate(0,0)"/>
<path d="" fill="#F7F7F7" transform="translate(0,0)"/>
<path d="" fill="#F7F7F7" transform="translate(0,0)"/>
<path d="" fill="#F77B7B" transform="translate(0,0)"/>
<path d="" fill="#F7F7F7" transform="translate(0,0)"/>
<path d="" fill="#F7F7F7" transform="translate(0,0)"/>
<path d="" fill="#F7F7F7" transform="translate(0,0)"/>
<path d="" fill="#F7F7F7" transform="translate(0,0)"/>
<path d="" fill="#7B7B7B" transform="translate(0,0)"/>
<path d="" fill="#F7F7F7" transform="translate(0,0)"/>
<path d="" fill="#F7F7F7" transform="translate(0,0)"/>
<path d="" fill="#F7F7F7" transform="translate(0,0)"/>
<path d="" fill="#F7F7F7" transform="translate(0,0)"/>
<path d="" fill="#F7F7F7" transform="translate(0,0)"/>
<path d="" fill="#F7F7F7" transform="translate(0,0)"/>
<path d="" fill="#F7F7F7" transform="translate(0,0)"/>
<path d="" fill="#F7F7F7" transform="translate(0,0)"/>
<path d="" fill="#F7F7F7" transform="translate(0,0)"/>
<path d="" fill="#A5A5A5" transform="translate(0,0)"/>
<path d="" fill="#F7F7F7" transform="translate(0,0)"/>
<path d="" fill="#F7F7F7" transform="translate(0,0)"/>
<path d="" fill="#F7F7F7" transform="translate(0,0)"/>
<path d="" fill="#F7F7F7" transform="translate(0,0)"/>
<path d="" fill="#F7F7F7" transform="translate(0,0)"/>
<path d="" fill="#F77B7B" transform="translate(0,0)"/>
<path d="" fill="#F77B7B" transform="translate(0,0)"/>
<path d="" fill="#F7F7F7" transform="translate(0,0)"/>
<path d="" fill="#F7F7F7" transform="translate(0,0)"/>
<path d="" fill="#F7F7F7" transform="translate(0,0)"/>
<path d="" fill="#F7F7F7" transform="translate(0,0)"/>
<path d="" fill="#F7F7F7" transform="translate(0,0)"/>
<path d="" fill="#F7F7F7" transform="translate(0,0)"/>
<path d="" fill="#F7F7F7" transform="translate(0,0)"/>
<path d="" fill="#F7F7F7" transform="translate(0,0)"/>
<path d="" fill="#F7F7F7" transform="translate(0,0)"/>
<path d="" fill="#F7F7F7" transform="translate(0,0)"/>
<path d="" fill="#F7F7F7" transform="translate(0,0)"/>
<path d="" fill="#F7F7F7" transform="translate(0,0)"/>
<path d="" fill="#F7F7F7" transform="translate(0,0)"/>
<path d="" fill="#F77B7B" transform="translate(0,0)"/>
<path d="" fill="#F77B7B" transform="translate(0,0)"/>
<path d="" fill="#F7F7F7" transform="translate(0,0)"/>
<path d="" fill="#F7F7F7" transform="translate(0,0)"/>
<path d="" fill="#F7F7F7" transform="translate(0,0)"/>
<path d="" fill="#F7F7F7" transform="translate(0,0)"/>
<path d="" fill="#F7F7F7" transform="translate(0,0)"/>
<path d="" fill="#F7F7F7" transform="translate(0,0)"/>
<path d="" fill="#F7F7F7" transform="translate(0,0)"/>
<path d="" fill="#F77B7B" transform="translate(0,0)"/>
<path d="" fill="#A5A5A5" transform="translate(0,0)"/>
<path d="" fill="#F7F7F7" transform="translate(0,0)"/>
<path d="" fill="#F77B7B" transform="translate(0,0)"/>
<path d="" fill="#F77B7B" transform="translate(0,0)"/>
<path d="" fill="#F7F7F7" transform="translate(0,0)"/>
<path d="" fill="#F7F7F7" transform="translate(0,0)"/>
<path d="" fill="#F7F7F7" transform="translate(0,0)"/>
<path d="" fill="#F7F7F7" transform="translate(0,0)"/>
<path d="" fill="#F7F7F7" transform="translate(0,0)"/>
<path d="" fill="#F7F7F7" transform="translate(0,0)"/>
<path d="" fill="#7B7B7B" transform="translate(0,0)"/>
<path d="" fill="#F77B7B" transform="translate(0,0)"/>
<path d="" fill="#F7F7F7" transform="translate(0,0)"/>
<path d="" fill="#F7F7F7" transform="translate(0,0)"/>
<path d="" fill="#F7F7F7" transform="translate(0,0)"/>
<path d="" fill="#F77B7B" transform="translate(0,0)"/>
<path d="" fill="#B97B7B" transform="translate(0,0)"/>
<path d="" fill="#7B7B7B" transform="translate(0,0)"/>
<path d="" fill="#F77B7B" transform="translate(0,0)"/>
<path d="" fill="#F7F7F7" transform="translate(0,0)"/>
<path d="" fill="#F7F7F7" transform="translate(0,0)"/>
<path d="" fill="#F7F7F7" transform="translate(0,0)"/>
<path d="" fill="#F7F7F7" transform="translate(0,0)"/>
<path d="" fill="#F7F7F7" transform="translate(0,0)"/>
<path d="" fill="#F7F7F7" transform="translate(0,0)"/>
<path d="" fill="#F7F7F7" transform="translate(0,0)"/>
<path d="" fill="#F77B7B" transform="translate(0,0)"/>
<path d="" fill="#C69494" transform="translate(0,0)"/>
<path d="" fill="#F7F7F7" transform="translate(0,0)"/>
<path d="" fill="#F7F7F7" transform="translate(0,0)"/>
<path d="" fill="#F77B7B" transform="translate(0,0)"/>
<path d="" fill="#F7F7F7" transform="translate(0,0)"/>
<path d="" fill="#F7F7F7" transform="translate(0,0)"/>
<path d="" fill="#F77B7B" transform="translate(0,0)"/>
<path d="" fill="#F7F7F7" transform="translate(0,0)"/>
<path d="" fill="#F7F7F7" transform="translate(0,0)"/>
<path d="" fill="#F7F7F7" transform="translate(0,0)"/>
<path d="" fill="#A5A5A5" transform="translate(0,0)"/>
<path d="" fill="#F7F7F7" transform="translate(0,0)"/>
<path d="" fill="#F7F7F7" transform="translate(0,0)"/>
<path d="" fill="#A5A5A5" transform="translate(0,0)"/>
<path d="" fill="#F7F7F7" transform="translate(0,0)"/>
<path d="" fill="#F7F7F7" transform="translate(0,0)"/>
<path d="" fill="#F77B7B" transform="translate(0,0)"/>
<path d="" fill="#F7F7F7" transform="translate(0,0)"/>
<path d="" fill="#F7F7F7" transform="translate(0,0)"/>
<path d="" fill="#F77B7B" transform="translate(0,0)"/>
<path d="" fill="#F7F7F7" transform="translate(0,0)"/>
<path d="" fill="#F7F7F7" transform="translate(0,0)"/>
<path d="" fill="#F77B7B" transform="translate(0,0)"/>
<path d="" fill="#F7F7F7" transform="translate(0,0)"/>
<path d="" fill="#F7F7F7" transform="translate(0,0)"/>
<path d="" fill="#A5A5A5" transform="translate(0,0)"/>
<path d="" fill="#F7F7F7" transform="translate(0,0)"/>
<path d="" fill="#F77B7B" transform="translate(0,0)"/>
<path d="" fill="#F7F7F7" transform="translate(0,0)"/>
<path d="" fill="#F7F7F7" transform="translate(0,0)"/>
<path d="" fill="#F7F7F7" transform="translate(0,0)"/>
<path d="" fill="#F7F7F7" transform="translate(0,0)"/>
<path d="" fill="#F7F7F7" transform="translate(0,0)"/>
<path d="" fill="#F7F7F7" transform="translate(0,0)"/>
<path d="" fill="#F7F7F7" transform="translate(0,0)"/>
<path d="" fill="#F7F7F7" transform="translate(0,0)"/>
<path d="" fill="#A5A5A5" transform="translate(0,0)"/>
<path d="" fill="#F77B7B" transform="translate(0,0)"/>
<path d="" fill="#F7F7F7" transform="translate(0,0)"/>
<path d="" fill="#F7F7F7" transform="translate(0,0)"/>
<path d="" fill="#F7F7F7" transform="translate(0,0)"/>
<path d="" fill="#F7F7F7" transform="translate(0,0)"/>
<path d="" fill="#F7F7F7" transform="translate(0,0)"/>
<path d="" fill="#F7F7F7" transform="translate(0,0)"/>
<path d="" fill="#F7F7F7" transform="translate(0,0)"/>
<path d="" fill="#A5A5A5" transform="translate(0,0)"/>
<path d="" fill="#F7F7F7" transform="translate(0,0)"/>
<path d="" fill="#F7F7F7" transform="translate(0,0)"/>
<path d="" fill="#F7F7F7" transform="translate(0,0)"/>
<path d="" fill="#F7F7F7" transform="translate(0,0)"/>
<path d="" fill="#F77B7B" transform="translate(0,0)"/>
<path d="" fill="#F77B7B" transform="translate(0,0)"/>
<path d="" fill="#F7F7F7" transform="translate(0,0)"/>
<path d="" fill="#F77B7B" transform="translate(0,0)"/>
<path d="" fill="#B97B7B" transform="translate(0,0)"/>
<path d="" fill="#F7F7F7" transform="translate(0,0)"/>
<path d="" fill="#F7F7F7" transform="translate(0,0)"/>
<path d="" fill="#F7F7F7" transform="translate(0,0)"/>
<path d="" fill="#F77B7B" transform="translate(0,0)"/>
<path d="" fill="#F7F7F7" transform="translate(0,0)"/>
<path d="" fill="#F7F7F7" transform="translate(0,0)"/>
<path d="" fill="#F77B7B" transform="translate(0,0)"/>
<path d="" fill="#F7F7F7" transform="translate(0,0)"/>
<path d="" fill="#F7F7F7" transform="translate(0,0)"/>
<path d="" fill="#B9B97B" transform="translate(0,0)"/>
<path d="" fill="#F77B7B" transform="translate(0,0)"/>
<path d="" fill="#F7F7F7" transform="translate(0,0)"/>
<path d="" fill="#F7F7F7" transform="translate(0,0)"/>
<path d="" fill="#F7F7F7" transform="translate(0,0)"/>
<path d="" fill="#F77B7B" transform="translate(0,0)"/>
<path d="" fill="#F77B7B" transform="translate(0,0)"/>
<path d="" fill="#F7F7F7" transform="translate(0,0)"/>
<path d="" fill="#F7F7F7" transform="translate(0,0)"/>
<path d="" fill="#F7F7F7" transform="translate(0,0)"/>
<path d="" fill="#F7F7F7" transform="translate(0,0)"/>
<path d="" fill="#F7F7F7" transform="translate(0,0)"/>
<path d="" fill="#F7F7F7" transform="translate(0,0)"/>
<path d="" fill="#F7F7F7" transform="translate(0,0)"/>
<path d="" fill="#F77B7B" transform="translate(0,0)"/>
<path d="" fill="#F7F7F7" transform="translate(0,0)"/>
<path d="" fill="#F7F7F7" transform="translate(0,0)"/>
<path d="" fill="#F77B7B" transform="translate(0,0)"/>
<path d="" fill="#F7F7F7" transform="translate(0,0)"/>
<path d="" fill="#F7F7F7" transform="translate(0,0)"/>
<path d="" fill="#A5A5A5" transform="translate(0,0)"/>
<path d="" fill="#F7F7F7" transform="translate(0,0)"/>
<path d="" fill="#F7F7F7" transform="translate(0,0)"/>
<path d="" fill="#F7F7F7" transform="translate(0,0)"/>
<path d="" fill="#F7F7F7" transform="translate(0,0)"/>
<path d="" fill="#B97B7B" transform="translate(0,0)"/>
<path d="" fill="#F7F7F7" transform="translate(0,0)"/>
<path d="" fill="#B97B7B" transform="translate(0,0)"/>
<path d="" fill="#F7F7F7" transform="translate(0,0)"/>
<path d="" fill="#F7F7F7" transform="translate(0,0)"/>
<path d="" fill="#F7F7F7" transform="translate(0,0)"/>
<path d="" fill="#F7F7F7" transform="translate(0,0)"/>
<path d="" fill="#F7F7F7" transform="translate(0,0)"/>
<path d="" fill="#F7F7F7" transform="translate(0,0)"/>
<path d="" fill="#F7F7F7" transform="translate(0,0)"/>
<path d="" fill="#7B7B7B" transform="translate(0,0)"/>
<path d="" fill="#A5A5A5" transform="translate(0,0)"/>
<path d="" fill="#F7F7F7" transform="translate(0,0)"/>
<path d="" fill="#F7F7F7" transform="translate(0,0)"/>
<path d="" fill="#F7F7F7" transform="translate(0,0)"/>
<path d="" fill="#F7F7F7" transform="translate(0,0)"/>
<path d="" fill="#7B7B7B" transform="translate(0,0)"/>
</svg>
